<?xml version="1.0" encoding="UTF-8"?>
<svg version="1.1" xmlns="http://www.w3.org/2000/svg" width="2025" height="2263">
<path d="M0 0 C4.95766508 2.24275325 6.7288887 7.45977898 9.14453125 12.1171875 C12.1111322 17.80027784 15.17407193 23.09896272 19 28.25 C25.04944209 36.39602133 30.18237998 45.12071501 35.37109375 53.82763672 C36.10385997 55.05584709 36.83692832 56.28387727 37.5703125 57.51171875 C37.92595276 58.10722534 38.28159302 58.70273193 38.64801025 59.31628418 C40.51657463 62.42222235 42.44346687 65.44834326 44.5546875 68.39453125 C53.96881258 81.66302967 57.9036753 97.79105159 62.625 113.1875 C63.285 113.1875 63.945 113.1875 64.625 113.1875 C65.64438721 111.49360808 66.5878469 109.75396604 67.5 108 C71.48512057 100.96597221 76.49523203 95.44890893 82.13916016 89.70410156 C83.50911316 88.30578607 84.85534867 86.88433859 86.19921875 85.4609375 C95.06491267 76.23833159 105.14552911 69.36312434 115.9375 62.625 C116.84153564 62.05773193 117.74557129 61.49046387 118.67700195 60.90600586 C122.74330926 58.39885762 126.73469052 56.04375692 131.13671875 54.17578125 C137.87382836 51.51319516 137.87382836 51.51319516 142.65332031 46.32617188 C144.3213516 42.02451111 145.24716279 37.58325913 146.17431641 33.07519531 C147.91961399 25.76498898 153.65035774 20.35041088 159.625 16.1875 C184.65799378 2.17054294 214.54531999 6.2124461 241.08862305 13.30883789 C245.30152393 14.50186835 249.47056883 15.80535271 253.625 17.1875 C254.30175781 17.41131348 254.97851562 17.63512695 255.67578125 17.86572266 C268.58669065 22.26687024 280.5224208 29.32365532 291.76953125 36.96875 C292.40366943 37.39631592 293.03780762 37.82388184 293.69116211 38.2644043 C295.38831445 39.42370892 297.06603397 40.61131808 298.7421875 41.80078125 C301.49262303 43.52159641 301.49262303 43.52159641 304.04174805 42.46899414 C306.58951998 41.20510085 308.62076259 39.84174115 310.83984375 38.0703125 C311.99323242 37.15958984 311.99323242 37.15958984 313.16992188 36.23046875 C313.95947266 35.59753906 314.74902344 34.96460938 315.5625 34.3125 C317.13256074 33.06314896 318.70414347 31.81570787 320.27734375 30.5703125 C321.0245166 29.97387939 321.77168945 29.37744629 322.54150391 28.76293945 C324.625 27.1875 324.625 27.1875 327.89453125 25.30078125 C331.78112473 22.29270246 333.27209662 18.61182016 335.375 14.25 C338.67435047 7.87533682 341.2607992 3.11245082 348.37890625 0.625 C352.54190051 -0.18587888 354.78584421 0.21068697 358.5078125 2.1875 C361.38130335 4.14193912 363.3308673 5.92976179 364.13964844 9.38818359 C364.77777902 20.08380703 364.99585732 30.78689474 365.0625 41.5 C365.06933807 42.52341492 365.07617615 43.54682983 365.08322144 44.60125732 C365.13142415 59.18307997 364.51409495 72.55724144 359.28930664 86.35205078 C358.59324189 88.27524624 358.0902026 90.19708367 357.625 92.1875 C358.08648438 92.57679688 358.54796875 92.96609375 359.0234375 93.3671875 C363.89965039 97.54955192 368.4563129 101.96019973 372.9375 106.5625 C375.0160166 108.592679 377.10831807 110.48873097 379.30859375 112.37890625 C384.32951761 116.7332003 389.00054784 121.4168559 393.6875 126.125 C394.97624023 127.40793945 394.97624023 127.40793945 396.29101562 128.71679688 C400.69713594 133.12964923 404.95525529 137.60525916 409.01831055 142.33569336 C411.59353791 145.30379845 414.30408953 148.14196362 417 151 C421.64815533 155.96723093 426.06978536 161.04326033 430.32421875 166.35546875 C432.98407488 169.62948521 435.73696294 172.81316272 438.5 176 C442.50319456 180.62422727 446.33629959 185.33799976 450.0625 190.1875 C457.22410037 199.47241526 465.2973231 207.94465512 473.625 216.1875 C474.12902344 216.70054687 474.63304687 217.21359375 475.15234375 217.7421875 C484.6822773 226.66495076 498.17468882 231.09091396 510.625 234.1875 C511.6135498 234.4352417 511.6135498 234.4352417 512.62207031 234.68798828 C534.76988948 239.88879963 559.23884409 237.99610206 581.6875 235.6875 C582.35724854 235.61867615 583.02699707 235.54985229 583.71704102 235.47894287 C584.37696045 235.41096497 585.03687988 235.34298706 585.71679688 235.27294922 C602.75940205 233.52008157 616.68241224 232.25893356 631.81201172 241.78637695 C632.5275119 242.23616409 633.24301208 242.68595123 633.98019409 243.14936829 C634.52298004 243.49195175 635.06576599 243.83453522 635.625 244.1875 C635.77122803 243.01654785 635.91745605 241.8455957 636.06811523 240.63916016 C636.61048179 236.30389252 637.15765485 231.96924292 637.70629883 227.63476562 C637.94329342 225.75700175 638.17897589 223.8790718 638.41333008 222.00097656 C638.74998465 219.30489301 639.09131964 216.60943766 639.43359375 213.9140625 C639.53780136 213.07130768 639.64200897 212.22855286 639.74937439 211.36026001 C640.51112829 205.41524341 640.51112829 205.41524341 641.625 203.1875 C643.275 203.1875 644.925 203.1875 646.625 203.1875 C646.61754257 203.81675385 646.61008514 204.44600769 646.60240173 205.09432983 C646.53324782 211.68180649 646.52763423 218.26722646 646.55786133 224.85498047 C646.56093142 227.30878914 646.54814539 229.7626735 646.51879883 232.21630859 C645.5616519 247.88579758 645.5616519 247.88579758 651.875 261.40234375 C653.43267746 262.69560303 655.0137558 263.96162448 656.625 265.1875 C658.17211914 267.07324219 658.17211914 267.07324219 659.41015625 268.91796875 C659.79147705 269.48523682 660.17279785 270.05250488 660.56567383 270.63696289 C660.93587646 271.21051514 661.3060791 271.78406738 661.6875 272.375 C662.09959717 273.00591553 662.51169434 273.63683105 662.9362793 274.28686523 C675.63105771 294.03728847 682.25276849 312.94400412 681.46875 336.7109375 C681.42447057 338.76600208 681.38765365 340.82112824 681.35074615 342.87633705 C681.2604811 347.86997242 681.15393782 352.86201426 680.98046875 357.85351562 C680.16811642 380.88186228 680.16811642 380.88186228 691.625 400.1875 C692.62403299 401.71065546 693.58288443 403.26210487 694.47265625 404.8515625 C694.84559814 405.50713135 695.21854004 406.1627002 695.6027832 406.83813477 C696.13971802 407.81544556 696.13971802 407.81544556 696.6875 408.8125 C697.09250732 409.54847412 697.49751465 410.28444824 697.91479492 411.04272461 C713.20991164 439.46746182 723.89683844 472.4296203 714.37890625 504.54296875 C713.50778265 507.37061663 712.58911349 510.17921384 711.6484375 512.984375 C710.5235486 515.94457751 710.5235486 515.94457751 710.625 518.1875 C711.52404053 518.12691406 712.42308105 518.06632813 713.34936523 518.00390625 C757.14581307 515.10366392 797.67090899 515.41490843 837.625 536.1875 C838.24246094 535.29289063 838.85992188 534.39828125 839.49609375 533.4765625 C850.71897585 517.368531 860.47555991 506.85343216 880.625 503.1875 C906.03995635 499.17165607 936.84033176 500.34168264 958.73828125 515.046875 C970.70566135 523.92119745 980.8445735 533.89132793 989.6640625 545.9296875 C990.13934891 546.57830246 990.61463531 547.22691742 991.10432434 547.89518738 C997.24615335 556.34044581 1003.00915597 565.04251037 1008.79907227 573.73071289 C1019.78550355 590.69022683 1019.78550355 590.69022683 1034.375 604.4375 C1035.09526367 604.97415283 1035.81552734 605.51080566 1036.55761719 606.0637207 C1043.09196416 610.89469936 1049.7716055 615.52360091 1056.44433594 620.16040039 C1067.31230104 627.72334497 1077.5018335 635.72288611 1087.14550781 644.80078125 C1089.596866 647.09842391 1092.08172991 649.35922457 1094.5625 651.625 C1095.56013793 652.54010072 1096.55753183 653.45546755 1097.5546875 654.37109375 C1099.66073212 656.30445625 1101.77083656 658.23327624 1103.8828125 660.16015625 C1109.17757054 665.00416338 1114.39392801 669.89384612 1119.4375 675 C1122.39665796 677.99326929 1125.35856172 680.89571924 1128.5625 683.625 C1132.10182375 686.64105618 1135.35967643 689.88220733 1138.625 693.1875 C1142.49130781 697.09634079 1146.39806948 700.866249 1150.58984375 704.4296875 C1153.03328038 706.5401414 1155.38418821 708.74042879 1157.75 710.9375 C1163.56897668 716.24138054 1169.68047787 721.09807272 1175.93017578 725.88232422 C1177.50542851 727.09541858 1179.06400981 728.33007754 1180.62109375 729.56640625 C1210.02451684 752.50666171 1247.49907595 762.77749021 1283.625 769.1875 C1285.15036377 769.45868652 1285.15036377 769.45868652 1286.70654297 769.73535156 C1316.42630465 774.74424422 1347.63892309 772.54525107 1377.625 771.1875 C1377.955 773.1675 1378.285 775.1475 1378.625 777.1875 C1337.84617012 797.45496582 1296.46549179 814.94395447 1250.625 800.1875 C1237.78774758 795.73401239 1225.67661498 789.40768838 1213.625 783.1875 C1231.1695753 818.19189419 1257.55169053 836.730948 1289.92919922 857.53149414 C1302.61624911 865.70397842 1312.61259078 873.91395777 1322.23046875 885.53027344 C1324.1499509 887.81133871 1326.16443042 889.9982497 1328.1875 892.1875 C1333.18363071 897.69767304 1337.72223278 903.53778232 1342.26074219 909.42480469 C1343.56227063 911.10645024 1344.87647665 912.77722374 1346.1953125 914.4453125 C1368.22027322 942.42749251 1382.83013678 971.36628264 1382.7578125 1007.5546875 C1382.75926773 1008.61579742 1382.76072296 1009.67690735 1382.76222229 1010.77017212 C1382.76445502 1014.2009849 1382.75821209 1017.6316972 1382.75 1021.0625 C1382.74717514 1022.82460815 1382.74717514 1022.82460815 1382.74429321 1024.62231445 C1382.63843227 1080.98057467 1374.31237736 1128.36612356 1357.625 1182.1875 C1355.645 1181.8575 1353.665 1181.5275 1351.625 1181.1875 C1349.11917289 1166.30591343 1346.64538232 1151.42022938 1344.27739334 1136.51606369 C1343.93823359 1134.38238433 1343.59810128 1132.24886218 1343.25765991 1130.11538696 C1343.08727235 1129.04741347 1343.08727235 1129.04741347 1342.91344261 1127.95786476 C1342.68333246 1126.51556023 1342.45321084 1125.07325753 1342.22307777 1123.63095665 C1341.64648445 1120.01446819 1341.07229595 1116.39762458 1340.50268555 1112.7800293 C1338.09904058 1097.52844825 1335.57623272 1082.32446333 1332.46484375 1067.19921875 C1332.10562584 1065.44797951 1332.10562584 1065.44797951 1331.739151 1063.66136169 C1326.75597454 1040.06682606 1317.11887124 1017.48638732 1296.625 1003.1875 C1289.5499076 998.74577532 1282.50759632 994.98789606 1274.625 992.1875 C1275.01131592 992.92983887 1275.39763184 993.67217773 1275.7956543 994.43701172 C1280.08920921 1002.69448201 1284.36369816 1010.96162594 1288.62145996 1019.23760986 C1289.56331375 1021.06764288 1290.50670094 1022.89688648 1291.45019531 1024.72607422 C1321.41973255 1083.0001744 1343.75606894 1155.26960082 1323.91992188 1220.50634766 C1323.19208236 1222.76920641 1322.42311635 1225.01103643 1321.625 1227.25 C1321.38813477 1227.93545898 1321.15126953 1228.62091797 1320.90722656 1229.32714844 C1319.17983699 1233.87648786 1319.17983699 1233.87648786 1316.625 1235.30859375 C1314.625 1235.1875 1314.625 1235.1875 1313.03686523 1234.03100586 C1311.10651899 1231.51050707 1311.16780547 1229.72831687 1311.03515625 1226.5703125 C1310.97545654 1225.42038818 1310.91575684 1224.27046387 1310.85424805 1223.08569336 C1310.79922119 1221.84053955 1310.74419434 1220.59538574 1310.6875 1219.3125 C1310.53628454 1216.6697826 1310.37998347 1214.02826861 1310.2109375 1211.38671875 C1310.14591286 1210.36998833 1310.14591286 1210.36998833 1310.07957458 1209.3327179 C1307.94844709 1177.75562026 1300.75254845 1151.11574349 1285.80615234 1123.3984375 C1284.75030502 1121.42205193 1283.72165645 1119.4352639 1282.70703125 1117.4375 C1277.10820974 1106.57296764 1269.5754619 1097.85456932 1261.265625 1089.00390625 C1259.71101837 1087.3458125 1258.17219851 1085.67221191 1256.671875 1083.96484375 C1236.93108592 1062.37872003 1200.00096205 1054.81207567 1173.09375 1046.06640625 C1142.43798088 1036.09602623 1116.08238952 1023.34431301 1090.625 1003.1875 C1089.63242188 1002.40761719 1088.63984375 1001.62773438 1087.6171875 1000.82421875 C1074.9766478 990.68657793 1063.2036787 980.25102135 1055 966.125 C1054.4942041 965.26865967 1053.9884082 964.41231934 1053.46728516 963.5300293 C1048.99928439 955.92648123 1044.66767808 948.24481349 1040.34570312 940.55761719 C1034.68538132 930.49067031 1028.91108448 920.49596117 1022.84375 910.66796875 C1022.36953613 909.89880127 1021.89532227 909.12963379 1021.40673828 908.3371582 C1020.51908616 906.90184844 1019.62737382 905.46903443 1018.72998047 904.03979492 C1011.50117434 892.37607869 1005.5000343 880.11941803 999.88745117 867.6159668 C998.93223794 865.48827903 997.96967382 863.36403789 997.00585938 861.24023438 C993.40323901 853.27867485 989.92534036 845.2799307 986.625 837.1875 C986.52795776 838.74078003 986.52795776 838.74078003 986.42895508 840.32543945 C985.05603292 862.0543649 983.35134924 883.71623077 981.125 905.375 C979.35905852 922.56728754 978.02894508 939.72045098 977.09579468 956.97662354 C975.89345108 978.7089783 973.58712992 1000.31940565 971.20139217 1021.94816589 C970.88770828 1024.80106206 970.57964927 1027.65455348 970.27207375 1030.50811386 C970.05955749 1032.45476579 969.8378 1034.40040212 969.61564636 1036.34597778 C967.58067306 1053.41086045 967.58067306 1053.41086045 971 1069.9375 C971.26184082 1070.58251465 971.52368164 1071.2275293 971.79345703 1071.89208984 C977.07714682 1084.46589605 984.01408886 1096.37944187 990.93359375 1108.109375 C998.09474975 1121.1416866 997.43000548 1133.11795397 993.625 1147.1875 C991.77190866 1152.95180082 989.5410063 1158.58082903 987.32946777 1164.21499634 C985.60212775 1168.62690805 983.92284719 1173.05694199 982.24609375 1177.48828125 C981.92170319 1178.34518051 981.59731262 1179.20207977 981.26309204 1180.08494568 C977.79200153 1189.31159592 974.79698236 1198.56748231 972.625 1208.1875 C972.37121582 1209.24469238 972.37121582 1209.24469238 972.11230469 1210.32324219 C965.12152117 1240.50632923 969.98896097 1273.88117563 975.6875 1303.8125 C975.91228027 1305.00238525 975.91228027 1305.00238525 976.14160156 1306.21630859 C977.00409531 1310.37271584 977.78936777 1313.96899759 980.625 1317.1875 C983.23667393 1318.08869055 985.50381411 1318.68827438 988.1875 1319.1875 C997.92287457 1321.3449631 1006.06639407 1323.84629694 1012.03515625 1332.37109375 C1018.59697189 1343.9953421 1021.4235397 1357.13907253 1023.625 1370.1875 C1023.81263916 1371.23703857 1024.00027832 1372.28657715 1024.19360352 1373.36791992 C1024.69995229 1377.85112685 1024.55361146 1382.08469023 1024.2890625 1386.578125 C1024.24004791 1387.4874176 1024.19103333 1388.39671021 1024.14053345 1389.33355713 C1023.97743664 1392.2854435 1023.80227467 1395.23643338 1023.625 1398.1875 C1023.5679187 1399.17290771 1023.5108374 1400.15831543 1023.45202637 1401.17358398 C1023.02756444 1408.43279729 1022.53943492 1415.68593776 1022 1422.9375 C1021.91907104 1424.0285907 1021.83814209 1425.1196814 1021.75476074 1426.24383545 C1020.49627985 1442.62060649 1018.41824786 1457.72799027 1012.625 1473.1875 C1013.10332275 1473.49453857 1013.58164551 1473.80157715 1014.07446289 1474.11791992 C1016.27998361 1475.53512734 1018.48374647 1476.95504632 1020.6875 1478.375 C1021.43966797 1478.85775391 1022.19183594 1479.34050781 1022.96679688 1479.83789062 C1025.19481745 1481.27501212 1027.41112333 1482.72870539 1029.625 1484.1875 C1030.31319824 1484.62916504 1031.00139648 1485.07083008 1031.71044922 1485.52587891 C1036.36262426 1488.63010304 1036.36262426 1488.63010304 1037.47070312 1490.98413086 C1037.69302178 1494.15885534 1036.5491767 1496.01486886 1035.09765625 1498.828125 C1034.55302734 1499.89804688 1034.00839844 1500.96796875 1033.44726562 1502.0703125 C1032.86654297 1503.18148438 1032.28582031 1504.29265625 1031.6875 1505.4375 C1030.8222168 1507.12746094 1030.8222168 1507.12746094 1029.93945312 1508.8515625 C1028.51189725 1511.63588636 1027.07345663 1514.41400777 1025.625 1517.1875 C1031.64477758 1519.96206843 1037.70826378 1522.38683714 1043.96484375 1524.5703125 C1045.70381341 1525.18609241 1047.44274462 1525.80198088 1049.18164062 1526.41796875 C1051.88904534 1527.37224428 1054.59709375 1528.32463567 1057.3059082 1529.27490234 C1059.94396123 1530.20185625 1062.57950086 1531.13568682 1065.21484375 1532.0703125 C1066.43662575 1532.49535568 1066.43662575 1532.49535568 1067.68309021 1532.9289856 C1073.39858491 1534.96108491 1073.39858491 1534.96108491 1075.625 1537.1875 C1076.07482514 1539.44568134 1076.41209424 1541.72665573 1076.6953125 1544.01171875 C1076.82478775 1545.04656906 1076.82478775 1545.04656906 1076.95687866 1546.10232544 C1077.23346535 1548.35862084 1077.49383688 1550.61629889 1077.75 1552.875 C1077.88257202 1554.02589615 1077.88257202 1554.02589615 1078.01782227 1555.20004272 C1082.00401674 1590.28598011 1082.00401674 1590.28598011 1076.87890625 1603.83984375 C1075.87967852 1606.50756389 1075.07708799 1609.07341589 1074.33984375 1611.81640625 C1067.76971222 1636.08672075 1055.12870196 1652.90246777 1037.625 1670.5 C1037.11661591 1671.01233185 1036.60823181 1671.5246637 1036.08444214 1672.05252075 C1032.65580975 1675.49384999 1029.17231798 1678.86869652 1025.625 1682.1875 C1025.1304834 1682.65444275 1024.6359668 1683.1213855 1024.12646484 1683.60247803 C1022.68987127 1684.94024988 1021.22039721 1686.24244321 1019.75 1687.54296875 C1018.48542969 1688.67255005 1018.48542969 1688.67255005 1017.1953125 1689.82495117 C1014.625 1691.1875 1014.625 1691.1875 1011.46044922 1690.54882812 C1008.16469723 1688.96650394 1006.24162824 1687.1672676 1003.75 1684.5 C1000.95134089 1681.53046566 998.12599611 1678.72021921 995.02734375 1676.0703125 C989.97937732 1671.70612254 985.28484695 1666.99751785 980.5793457 1662.2722168 C979.0650742 1660.75258332 977.5455257 1659.23837483 976.02539062 1657.72460938 C971.20157659 1652.90399477 966.48541735 1648.0336309 962.04956055 1642.84838867 C960.20070851 1640.69282047 958.25331046 1638.6352102 956.3125 1636.5625 C943.10423684 1621.82675062 933.96874424 1605.25495105 928.625 1586.1875 C928.3053125 1585.05570313 927.985625 1583.92390625 927.65625 1582.7578125 C925.73897569 1574.78692209 925.35076497 1567.11177598 925.3125 1558.9375 C925.30694092 1557.94371338 925.30138184 1556.94992676 925.2956543 1555.92602539 C925.34224411 1551.12807096 925.69808269 1546.68673539 926.63110352 1541.97705078 C927.65963216 1536.51241914 927.87502981 1531.30514209 927.828125 1525.7578125 C927.83340491 1523.75015722 927.84056659 1521.74250622 927.84936523 1519.73486328 C927.85357986 1518.16771576 927.85357986 1518.16771576 927.85787964 1516.56890869 C928.06059781 1478.01054001 934.50685048 1440.60873617 941.03540516 1402.71869183 C941.36636217 1400.79763842 941.69535427 1398.87624683 942.02430725 1396.95484924 C942.42975237 1394.59125775 942.83930006 1392.22836501 943.25364685 1389.86631775 C943.4346846 1388.80900955 943.61572235 1387.75170135 943.80224609 1386.66235352 C943.96179779 1385.74551285 944.12134949 1384.82867218 944.28573608 1383.88404846 C945.10434172 1378.38455538 945.10434172 1378.38455538 943.48266602 1373.30395508 C942.95342529 1372.77697021 942.42418457 1372.24998535 941.87890625 1371.70703125 C941.29318848 1371.10584473 940.7074707 1370.5046582 940.10400391 1369.88525391 C939.47155762 1369.26312012 938.83911133 1368.64098633 938.1875 1368 C936.89192139 1366.6731162 935.59895687 1365.34367504 934.30859375 1364.01171875 C933.67550293 1363.36251465 933.04241211 1362.71331055 932.39013672 1362.04443359 C929.25709435 1358.74845568 926.46568232 1355.20875042 923.62890625 1351.65625 C921.71724685 1349.30114524 919.7301545 1347.05414073 917.6875 1344.8125 C874.07206048 1295.94944349 868.04897309 1239.96113981 868.625 1177.1875 C867.69519821 1177.1160099 867.69519821 1177.1160099 866.74661255 1177.04307556 C822.0945037 1173.58086177 793.82238413 1161.98971132 763.9375 1128.125 C762.83173887 1126.81384303 761.72779186 1125.50115536 760.625 1124.1875 C759.76003906 1123.20007812 758.89507813 1122.21265625 758.00390625 1121.1953125 C751.33759292 1113.5720803 745.09009845 1105.70116712 738.98828125 1097.62109375 C736.11205795 1093.81345756 733.1825264 1090.05049595 730.23754883 1086.29589844 C724.27496407 1078.69083305 718.52467703 1070.98345662 712.96582031 1063.08007812 C710.31937147 1059.34459535 707.62363444 1055.6444877 704.9375 1051.9375 C700.44284068 1045.72629394 695.98345228 1039.49536912 691.625 1033.1875 C691.233125 1033.72375 690.84125 1034.26 690.4375 1034.8125 C689.839375 1035.59625 689.24125 1036.38 688.625 1037.1875 C687.9134375 1038.12851563 687.201875 1039.06953125 686.46875 1040.0390625 C683.21305523 1043.90762243 679.22665263 1046.65252093 675.125 1049.5625 C673.41546995 1050.79782475 671.70718144 1052.03486907 670 1053.2734375 C668.67355469 1054.2339502 668.67355469 1054.2339502 667.3203125 1055.21386719 C662.87100116 1058.4718593 658.4999632 1061.8307071 654.125 1065.1875 C647.50619563 1070.25487023 640.84990929 1075.26180815 634.125 1080.1875 C626.4067739 1085.84157768 618.77657409 1091.60392536 611.1796875 1097.41992188 C610.36886719 1098.04060547 609.55804687 1098.66128906 608.72265625 1099.30078125 C607.9136084 1099.94901855 607.10456055 1100.59725586 606.27099609 1101.26513672 C603.625 1103.1875 603.625 1103.1875 600.38916016 1104.81689453 C595.82241712 1107.36951715 592.42567858 1109.44048484 590.93313599 1114.56118774 C589.74509402 1121.80610846 589.85365908 1129.11649883 589.875 1136.4375 C589.83869521 1138.64723002 589.79707381 1140.85687941 589.75 1143.06640625 C589.66904629 1147.27323695 589.63314371 1151.47601715 589.64233398 1155.68359375 C589.64814799 1158.95726302 589.59886787 1162.20472669 589.40649414 1165.47265625 C588.90723446 1171.80829133 588.90723446 1171.80829133 592.08984375 1176.96875 C593.80880859 1177.81953125 593.80880859 1177.81953125 595.5625 1178.6875 C596.8496517 1179.38480481 598.13200731 1180.09101475 599.41015625 1180.8046875 C600.09352051 1181.17561523 600.77688477 1181.54654297 601.48095703 1181.92871094 C605.39439734 1184.22633087 608.92377214 1187.02927042 612.5 1189.8125 C613.18827881 1190.33908203 613.87655762 1190.86566406 614.58569336 1191.40820312 C630.93785975 1204.03244503 642.04348063 1218.4795572 645.09765625 1239.4296875 C646.68588368 1255.53102769 644.75190357 1270.12169051 634.31640625 1283.046875 C622.37096644 1295.62867767 607.47535646 1305.05751592 593.08291626 1314.55795288 C584.65110718 1320.12495386 576.40841068 1325.73348728 568.625 1332.1875 C568.06071289 1332.65317383 567.49642578 1333.11884766 566.91503906 1333.59863281 C554.32946376 1344.02900459 543.44115693 1355.11626469 533.625 1368.1875 C532.95210937 1369.06535156 532.27921875 1369.94320313 531.5859375 1370.84765625 C520.79187286 1385.46957201 515.09508852 1402.58018191 517.1875 1420.75 C519.8604524 1436.5780711 525.60351124 1451.20888871 532.16015625 1465.78515625 C532.75594482 1467.11184326 532.75594482 1467.11184326 533.36376953 1468.46533203 C534.24760959 1470.37296206 535.16865038 1472.26358963 536.11669922 1474.14013672 C536.59252441 1475.10322754 537.06834961 1476.06631836 537.55859375 1477.05859375 C538.00130615 1477.92282959 538.44401855 1478.78706543 538.90014648 1479.67749023 C539.625 1482.1875 539.625 1482.1875 539.00366211 1484.91357422 C537.625 1487.1875 537.625 1487.1875 535.80908203 1488.18237305 C535.09091309 1488.35293213 534.37274414 1488.52349121 533.6328125 1488.69921875 C532.84519531 1488.89966797 532.05757812 1489.10011719 531.24609375 1489.30664062 C530.42238281 1489.49419922 529.59867188 1489.68175781 528.75 1489.875 C527.12673603 1490.2711995 525.50430476 1490.67082957 523.8828125 1491.07421875 C523.1623877 1491.24139404 522.44196289 1491.40856934 521.69970703 1491.58081055 C519.51204644 1492.22053008 517.62986415 1493.11167104 515.625 1494.1875 C514.26633323 1506.74761951 519.96023342 1519.04025948 524.70703125 1530.41796875 C525.66924199 1533.32097903 526.09291981 1535.1655179 525.625 1538.1875 C524.04296875 1540.44140625 524.04296875 1540.44140625 521.8125 1542.75 C520.99136719 1543.61753906 520.17023437 1544.48507812 519.32421875 1545.37890625 C518.43347656 1546.30574219 517.54273438 1547.23257812 516.625 1548.1875 C514.78063492 1550.17745544 512.95350905 1552.18298129 511.125 1554.1875 C510.18767234 1555.20849158 509.25017364 1556.22932615 508.3125 1557.25 C505.90282859 1559.88382689 503.50929419 1562.53071505 501.125 1565.1875 C497.34962783 1569.39434327 493.53519552 1573.56424853 489.7109375 1577.7265625 C486.83077393 1580.86417086 483.96968386 1584.01770941 481.125 1587.1875 C477.34962783 1591.39434327 473.53519552 1595.56424853 469.7109375 1599.7265625 C466.83077393 1602.86417086 463.96968386 1606.01770941 461.125 1609.1875 C457.81498148 1612.87580635 454.47772786 1616.53803979 451.125 1620.1875 C447.63457728 1623.98986135 444.15073492 1627.79781264 440.6875 1631.625 C439.99785156 1632.38683594 439.30820312 1633.14867187 438.59765625 1633.93359375 C436.53050089 1636.29547225 434.56799437 1638.72289641 432.625 1641.1875 C429.79931641 1640.98095703 429.79931641 1640.98095703 426.625 1640.1875 C425.03271484 1638.17919922 425.03271484 1638.17919922 423.8359375 1635.4921875 C423.37533936 1634.48188477 422.91474121 1633.47158203 422.44018555 1632.43066406 C421.96492432 1631.31916992 421.48966309 1630.20767578 421 1629.0625 C420.48928955 1627.90975586 419.9785791 1626.75701172 419.45239258 1625.56933594 C411.6487534 1607.70722222 404.48331416 1589.49176856 398.5 1570.9375 C398.22889404 1570.09993164 397.95778809 1569.26236328 397.6784668 1568.39941406 C380.67362717 1513.55367766 406.65645934 1443.14108188 432.0625 1394.3125 C443.33828232 1373.3120877 457.28789866 1354.35235245 472.625 1336.1875 C473.43469238 1335.2269873 473.43469238 1335.2269873 474.26074219 1334.24707031 C480.16958912 1327.25389685 486.19513032 1320.38911641 492.38671875 1313.64453125 C494.37817336 1311.45844931 496.32172513 1309.24167394 498.25 1307 C504.19971293 1300.19242148 510.58750943 1294.32684236 517.63671875 1288.671875 C520.91013557 1285.95044611 524.02060109 1283.09790264 527.125 1280.1875 C531.89431376 1275.72078807 536.80407255 1271.52572601 541.90234375 1267.43359375 C546.63600888 1263.52848981 551.12429188 1259.35740172 555.625 1255.1875 C551.57258987 1253.61833535 547.50686051 1252.08710889 543.4375 1250.5625 C542.28701172 1250.11648438 541.13652344 1249.67046875 539.95117188 1249.2109375 C538.83935547 1248.7984375 537.72753906 1248.3859375 536.58203125 1247.9609375 C535.56085205 1247.57341309 534.53967285 1247.18588867 533.48754883 1246.78662109 C529.9525137 1246.04675106 528.80338914 1246.52953292 525.625 1248.1875 C525.06097977 1248.47256409 524.49695953 1248.75762817 523.91584778 1249.05133057 C521.88975389 1250.08340473 519.88191674 1251.14597811 517.875 1252.21484375 C517.13926758 1252.60442764 516.40353516 1252.99401154 515.64550781 1253.395401 C514.09506524 1254.21706937 512.54527263 1255.03996521 510.99609375 1255.86401367 C508.63438299 1257.12000997 506.27049807 1258.37183447 503.90625 1259.62304688 C502.39570288 1260.42423326 500.88528197 1261.22565765 499.375 1262.02734375 C498.6727832 1262.39931381 497.97056641 1262.77128387 497.24707031 1263.15452576 C496.58288086 1263.50821732 495.91869141 1263.86190887 495.234375 1264.22631836 C494.60726624 1264.55876556 493.98015747 1264.89121277 493.33404541 1265.23373413 C491.43600591 1266.26059596 491.43600591 1266.26059596 489.01464844 1267.95727539 C485.93338674 1269.54355223 484.07630383 1269.37513434 480.640625 1269.03125 C478.78147461 1268.85142578 478.78147461 1268.85142578 476.88476562 1268.66796875 C475.46470105 1268.50908276 474.0447867 1268.34885016 472.625 1268.1875 C471.85148193 1268.10516113 471.07796387 1268.02282227 470.28100586 1267.93798828 C429.21833298 1263.56589443 394.9055281 1254.37378569 357.25440979 1237.5380249 C325.16512085 1223.26771583 296.57978345 1216.2173839 261.47085571 1219.90036011 C231.20586393 1223.04778798 231.20586393 1223.04778798 222.625 1220.1875 C222.74093506 1220.75557373 222.85687012 1221.32364746 222.97631836 1221.90893555 C226.00367442 1236.87626866 227.67686842 1251.09306265 227.8125 1266.375 C227.82571289 1267.4047998 227.83892578 1268.43459961 227.85253906 1269.49560547 C227.85398926 1270.94217529 227.85398926 1270.94217529 227.85546875 1272.41796875 C227.85957764 1273.28832764 227.86368652 1274.15868652 227.86791992 1275.05541992 C227.625 1277.1875 227.625 1277.1875 225.625 1279.1875 C223.26359775 1279.74889847 220.96491757 1280.20103781 218.57421875 1280.58984375 C217.85637711 1280.71225937 217.13853546 1280.83467499 216.39894104 1280.96080017 C214.03835484 1281.35900733 211.67579486 1281.74321691 209.3125 1282.125 C208.10358093 1282.32334442 208.10358093 1282.32334442 206.87023926 1282.5256958 C164.41081876 1289.46478184 164.41081876 1289.46478184 144.625 1288.1875 C143.70074219 1288.12949219 142.77648437 1288.07148437 141.82421875 1288.01171875 C128.35371308 1286.35534546 115.34264822 1278.02503663 104.625 1270.1875 C103.86799805 1269.63658691 103.11099609 1269.08567383 102.33105469 1268.51806641 C86.63925867 1257.07524724 86.63925867 1257.07524724 83.796875 1254.58740234 C80.85013574 1252.68805399 78.20294832 1252.30686107 74.75 1251.71484375 C73.70875977 1251.53319923 73.70875977 1251.53319923 72.64648438 1251.34788513 C70.30822149 1250.946172 67.96734677 1250.56464265 65.625 1250.1875 C64.79581055 1250.05257141 63.96662109 1249.91764282 63.11230469 1249.77862549 C56.62257018 1248.72887849 50.12492689 1247.73434991 43.625 1246.75 C42.62242157 1246.59687347 41.61984314 1246.44374695 40.58688354 1246.28598022 C30.41746188 1244.73468171 20.24937062 1243.21219629 10.03515625 1241.984375 C9.31049164 1241.89707626 8.58582703 1241.80977753 7.83920288 1241.71983337 C4.55655584 1241.32881322 1.27367489 1240.95591507 -2.01367188 1240.60571289 C-14.80443028 1239.15439907 -30.10048392 1236.91642738 -39.875 1227.875 C-44.18257725 1220.15725743 -43.86650475 1211.22846083 -44.3125 1202.625 C-45.31755943 1186.02169577 -48.04001223 1172.59572972 -54.19287109 1157.12353516 C-57.86324574 1147.7995465 -61.01192788 1138.3734992 -64 1128.8125 C-64.35162704 1127.6975415 -64.35162704 1127.6975415 -64.71035767 1126.56005859 C-67.11205764 1118.93153072 -69.39639446 1111.31200453 -71.28515625 1103.5390625 C-75.2659595 1087.40380231 -81.33459289 1076.0845705 -91.3828125 1062.90576172 C-94.59048935 1058.52901245 -97.36871997 1053.91983137 -100.125 1049.25 C-100.60163086 1048.45142578 -101.07826172 1047.65285156 -101.56933594 1046.83007812 C-118.32017223 1018.40808153 -128.99625323 969.79131768 -123.85546875 936.859375 C-122.95641387 934.05136798 -121.85072955 931.73969009 -120.375 929.1875 C-119.77558594 928.12015625 -119.17617188 927.0528125 -118.55859375 925.953125 C-109.85103593 911.18189517 -97.58946643 899.23479998 -85.5625 887.1875 C-85.02093262 886.64475433 -84.47936523 886.10200867 -83.92138672 885.54281616 C-78.46974089 880.09251137 -72.98107468 874.7505687 -67.11694336 869.73974609 C-64.81664936 867.68995363 -62.75371487 865.46114136 -60.66015625 863.20385742 C-52.93226583 854.96227013 -44.30682154 849.25419432 -34.62890625 843.52636719 C-20.48279806 835.12328472 -8.00004022 825.90614421 2.625 813.1875 C3.84896484 811.88619141 3.84896484 811.88619141 5.09765625 810.55859375 C8.62479058 806.30546265 10.93179438 802.52996946 10.6652832 796.90698242 C10.50397902 795.2624267 10.31837386 793.62013932 10.11328125 791.98046875 C9.96319359 790.62342583 9.96319359 790.62342583 9.81007385 789.2389679 C8.37884936 777.04653909 6.19349516 764.96012894 4.0625 752.875 C3.44220818 749.3182897 2.82417729 745.76119869 2.20777893 742.20381165 C1.82764177 740.0140361 1.44494002 737.82470359 1.05918884 735.63591003 C-0.34755749 727.5941604 -1.52012172 719.74998315 -1.5625 711.5625 C-1.57667969 710.31210938 -1.59085937 709.06171875 -1.60546875 707.7734375 C-1.37770899 704.22965002 -0.65748692 701.48242688 0.625 698.1875 C-0.29125483 698.1292165 -0.29125483 698.1292165 -1.22601986 698.06975555 C-9.65817656 697.42769082 -17.87712889 695.91045018 -26.16821289 694.31445312 C-27.73954894 694.01602215 -29.31097363 693.7180575 -30.88247871 693.42051792 C-35.14557188 692.61202097 -39.40740834 691.79706966 -43.66905379 690.98098111 C-48.20598819 690.11337982 -52.744086 689.25190592 -57.28205872 688.38975525 C-65.00595418 686.92150591 -72.72914557 685.44960306 -80.45184326 683.97506714 C-92.41694882 681.69054598 -104.38340585 679.41315824 -116.35009766 677.13696289 C-120.31440221 676.38281992 -124.278695 675.62861512 -128.24298096 674.87437439 C-129.70698452 674.59583826 -129.70698452 674.59583826 -131.20056391 674.31167513 C-138.06248665 673.00603403 -144.9242087 671.69934176 -151.78582764 670.3921051 C-180.33806955 664.95264475 -208.89480041 659.53762868 -237.45719528 654.15170288 C-242.03803719 653.28778905 -246.61874249 652.42315156 -251.19946289 651.55859375 C-258.92448145 650.10071081 -266.64965379 648.64364583 -274.375 647.1875 C-274.045 645.2075 -273.715 643.2275 -273.375 641.1875 C-261.32301183 641.86966417 -249.40716726 643.53744982 -237.44921875 645.12890625 C-235.24823462 645.41924548 -233.04720953 645.70927435 -230.84614563 645.99900818 C-225.09359301 646.75707493 -219.34160137 647.51931713 -213.58972168 648.2824707 C-207.70403175 649.06261233 -201.81781368 649.83874785 -195.93164062 650.61523438 C-184.41224405 652.13543273 -172.89343694 653.66004875 -161.375 655.1875 C-161.39820313 654.20007813 -161.42140625 653.21265625 -161.4453125 652.1953125 C-161.46335937 650.91398438 -161.48140625 649.63265625 -161.5 648.3125 C-161.52320313 647.03632812 -161.54640625 645.76015625 -161.5703125 644.4453125 C-161.375 641.1875 -161.375 641.1875 -159.375 639.1875 C-157.48779297 638.94026184 -157.48779297 638.94026184 -155.1171875 638.94458008 C-154.20518082 638.94154373 -153.29317413 638.93850739 -152.35353088 638.93537903 C-151.32936569 638.94252426 -150.3052005 638.94966949 -149.25 638.95703125 C-147.5860746 638.95717476 -147.5860746 638.95717476 -145.88853455 638.95732117 C-142.72611711 638.96048445 -139.56389986 638.97326074 -136.40153122 638.99026489 C-133.68095392 639.00333408 -130.96038039 639.00889047 -128.23977947 639.01470375 C-76.28488068 639.13212413 -24.32767201 639.71680397 27.625 640.1875 C27.93021576 639.56075378 28.23543152 638.93400757 28.54989624 638.28826904 C29.58841897 636.2589799 30.68528973 634.74005006 32.1640625 633.015625 C32.9051123 632.14852905 32.9051123 632.14852905 33.66113281 631.26391602 C34.18545898 630.66119873 34.70978516 630.05848145 35.25 629.4375 C35.78979492 628.81351318 36.32958984 628.18952637 36.88574219 627.54663086 C42.76081423 620.80711396 48.95587992 614.62485015 55.765625 608.828125 C56.37921875 608.28671875 56.9928125 607.7453125 57.625 607.1875 C58.56085938 606.37345703 58.56085938 606.37345703 59.515625 605.54296875 C62.59920164 602.0996415 64.79102981 598.2267188 67.125 594.25 C67.65053467 593.36610596 68.17606934 592.48221191 68.7175293 591.5715332 C71.87724065 586.23407475 74.95177351 580.85305384 77.99047852 575.44604492 C85.83245366 561.51254732 94.53482223 548.17812999 103.49609375 534.94140625 C110.8037212 524.04569081 116.92088068 512.56458431 123.0234375 500.96875 C125.60022446 496.07897379 128.26944123 491.26074494 131.03149414 486.47387695 C135.40047936 478.88914542 138.59368298 471.76754054 140.625 463.1875 C139.31789063 464.04021484 139.31789063 464.04021484 137.984375 464.91015625 C117.40141992 478.28485745 97.05237491 490.21771237 71.49609375 485.5 C54.96173437 481.96933722 43.50028615 474.00260298 34.1875 459.8125 C28.36303697 450.59550005 27.15206104 439.58762477 25.9375 428.9375 C25.8130249 427.84630859 25.6885498 426.75511719 25.56030273 425.63085938 C23.86095715 409.9174301 24.04157985 395.34770318 29.67358398 380.40551758 C32.86117657 371.53100954 32.86503429 363.98482497 32.32675171 354.74020386 C30.59648988 323.79835975 31.79751725 291.49958651 38.625 261.1875 C38.92198141 259.80498931 39.21761352 258.4221879 39.51171875 257.0390625 C40.00960122 254.7220875 40.51477675 252.40665196 41.03125 250.09375 C41.84040393 246.13315445 42.27798156 242.21291392 42.625 238.1875 C41.97023682 238.10081055 41.31547363 238.01412109 40.64086914 237.92480469 C36.60093111 236.93714073 33.10186558 235.20225315 29.37109375 233.390625 C28.56634109 233.00558807 27.76158844 232.62055115 26.93244934 232.22384644 C25.20522754 231.3967926 23.47920429 230.56723191 21.75427246 229.7354126 C17.20999517 227.54426352 12.65694782 225.3714506 8.10546875 223.1953125 C6.74737595 222.54494522 6.74737595 222.54494522 5.36184692 221.88143921 C-2.10975299 218.30555051 -9.60692026 214.78959133 -17.125 211.3125 C-18.21288818 210.808396 -19.30077637 210.30429199 -20.42163086 209.78491211 C-25.68968865 207.34633841 -30.96193414 204.91702068 -36.2376709 202.49511719 C-38.8604283 201.29019168 -41.48164639 200.08194071 -44.10266113 198.87322998 C-45.9572116 198.0196929 -47.81399752 197.17116229 -49.67089844 196.32275391 C-50.78239258 195.81019043 -51.89388672 195.29762695 -53.0390625 194.76953125 C-54.02342285 194.31811768 -55.0077832 193.8667041 -56.02197266 193.40161133 C-58.375 192.1875 -58.375 192.1875 -60.375 190.1875 C-60.086292 184.87264814 -58.48224179 180.51695276 -56.125 175.8125 C-55.83753906 175.18472656 -55.55007813 174.55695313 -55.25390625 173.91015625 C-53.94203858 171.25777751 -53.04523747 169.47593109 -50.2668457 168.28027344 C-45.95955996 168.1420912 -42.9218749 169.89183113 -39.12109375 171.7890625 C-38.31597855 172.1771106 -37.51086334 172.56515869 -36.68135071 172.96496582 C-34.05224544 174.23519796 -31.43266488 175.52394209 -28.8125 176.8125 C-26.99652768 177.69281187 -25.17978984 178.57154624 -23.36230469 179.44873047 C-19.72541178 181.20463535 -16.09111594 182.9657425 -12.45849609 184.73046875 C-5.71488837 187.99883628 1.07263233 191.16867828 7.875 194.3125 C8.98206299 194.82530518 10.08912598 195.33811035 11.22973633 195.86645508 C20.99549821 200.37944868 30.79931232 204.80669224 40.625 209.1875 C40.480625 208.35347656 40.33625 207.51945313 40.1875 206.66015625 C40.001875 205.53480469 39.81625 204.40945313 39.625 203.25 C39.439375 202.14785156 39.25375 201.04570313 39.0625 199.91015625 C36.91585999 181.64454972 41.1604283 163.75271391 48.625 147.1875 C46.78035156 146.97673828 46.78035156 146.97673828 44.8984375 146.76171875 C30.81218183 144.98621842 18.83439228 136.75227387 9.625 126.1875 C-9.21284921 101.49696978 -9.31117214 62.62950987 -10.27099609 33.03417969 C-10.35480066 30.740374 -10.46989304 28.45461284 -10.61328125 26.1640625 C-10.97539339 17.78375308 -9.27254524 8.02686851 -3.85546875 1.30078125 C-2.375 0.1875 -2.375 0.1875 0 0 Z M555.625 291.1875 C559.92683192 294.86862671 564.57439561 297.6453716 569.4375 300.5 C577.24759163 305.13549907 584.99046482 309.86658557 592.6875 314.6875 C594.1888147 315.62698486 594.1888147 315.62698486 595.72045898 316.58544922 C600.59307891 319.64047006 605.45456157 322.71185683 610.30078125 325.80859375 C611.18048584 326.36933594 612.06019043 326.93007813 612.96655273 327.5078125 C614.61844845 328.56227499 616.26783219 329.62068619 617.91430664 330.68359375 C618.64125732 331.14765625 619.36820801 331.61171875 620.1171875 332.08984375 C620.74995605 332.49710693 621.38272461 332.90437012 622.03466797 333.32397461 C623.61632723 334.3465594 623.61632723 334.3465594 625.625 334.1875 C626.22333395 329.72306691 626.81097676 325.25740234 627.38891602 320.7902832 C627.58685475 319.27199766 627.78766885 317.75408401 627.99145508 316.23657227 C628.28449886 314.05056594 628.56704907 311.86341445 628.84765625 309.67578125 C628.94031265 309.00162674 629.03296906 308.32747223 629.12843323 307.63288879 C629.59099844 303.93803332 629.8578432 300.738169 628.625 297.1875 C626.13955972 295.68951016 623.97914759 294.61725734 621.3125 293.5625 C620.5913501 293.26327637 619.8702002 292.96405273 619.12719727 292.65576172 C599.86423574 284.88063079 575.13715516 282.47333362 555.625 291.1875 Z M645.625 312.1875 C645.27902341 317.01263776 645.00669487 321.83554298 644.77587891 326.66748047 C644.62578093 329.17445664 644.38615773 331.66133858 644.13671875 334.16015625 C643.22452451 343.4501155 643.22452451 343.4501155 647.01953125 351.5859375 C649.95906467 354.49667079 653.24041197 356.82036481 656.625 359.1875 C658.12216335 360.45826304 659.60438358 361.74711667 661.0625 363.0625 C661.67996094 363.59746094 662.29742188 364.13242187 662.93359375 364.68359375 C665.26720684 366.75851532 667.45160436 368.94618575 669.625 371.1875 C668.74587969 350.44026057 661.0123773 330.75201616 648.625 314.1875 C647.635 313.5275 646.645 312.8675 645.625 312.1875 Z M562.625 416.1875 C566.14750704 419.90023554 569.84030472 422.91297749 574.0625 425.8125 C584.53677683 433.15269745 594.46617677 441.16561575 604.3203125 449.3125 C606.38101944 450.98900734 608.49977023 452.59357767 610.625 454.1875 C611.285 448.2475 611.945 442.3075 612.625 436.1875 C603.44629649 431.36830995 594.11642194 427.46576472 584.44873047 423.75341797 C581.96690319 422.79978264 579.48915156 421.83608084 577.01171875 420.87109375 C575.43251782 420.25983207 573.85309886 419.64913332 572.2734375 419.0390625 C571.53394867 418.75165192 570.79445984 418.46424133 570.03256226 418.16812134 C566.43259239 416.69848258 566.43259239 416.69848258 562.625 416.1875 Z M643.625 451.1875 C642.57022976 454.35181072 642.46880324 456.66855961 642.41967773 459.99389648 C642.39973251 461.19042343 642.37978729 462.38695038 642.35923767 463.61973572 C642.34252518 464.91955887 642.32581268 466.21938202 642.30859375 467.55859375 C642.28797463 468.91887471 642.26697705 470.27914997 642.24562073 471.63941956 C642.20162312 474.50347574 642.16074178 477.36755319 642.12231445 480.23168945 C642.0738579 483.84110164 642.02014038 487.45040793 641.96434593 491.05971336 C641.7273537 506.43581942 641.55177554 521.80920011 641.625 537.1875 C645.51814611 536.95530215 649.41011895 536.71576383 653.30078125 536.4453125 C655.89824747 536.27317408 658.43561416 536.18564717 661.04296875 536.1796875 C668.29306289 536.0483792 671.53301633 534.29105065 676.58203125 529.11328125 C678.60375961 527.20752201 680.03445513 526.39854599 682.625 525.5 C683.615 525.066875 684.605 524.63375 685.625 524.1875 C689.7589344 511.56938629 686.76546284 494.12055825 681.125 482.5625 C672.88423685 468.64611321 657.8504502 458.33785856 643.625 451.1875 Z M-84.375 665.1875 C-84.375 665.5175 -84.375 665.8475 -84.375 666.1875 C-73.56173167 667.62783761 -62.7477333 669.06255124 -51.9327774 670.49016571 C-46.91054505 671.15329718 -41.88858081 671.81833523 -36.8671875 672.48779297 C-32.01782102 673.13424349 -27.1678057 673.77560407 -22.31730652 674.41349792 C-20.47039477 674.65728538 -18.62372065 674.90288044 -16.77729797 675.15034485 C-14.18352554 675.49765214 -11.58896901 675.83841924 -8.99414062 676.17773438 C-8.2374408 676.2805925 -7.48074097 676.38345062 -6.70111084 676.48942566 C-1.88608136 677.11030464 2.7695476 677.27603003 7.625 677.1875 C8.29854499 675.75320999 8.96359701 674.31492943 9.625 672.875 C10.181875 671.67423828 10.181875 671.67423828 10.75 670.44921875 C11.80540667 668.12536041 11.80540667 668.12536041 11.625 665.1875 C-20.055 665.1875 -51.735 665.1875 -84.375 665.1875 Z M148.1875 946.76171875 C147.35275146 946.92742874 146.51800293 947.09313873 145.65795898 947.26387024 C143.88226434 947.61758774 142.1069636 947.97328754 140.33203125 948.33081055 C137.69132416 948.86166698 135.04894823 949.38345682 132.40625 949.90429688 C130.66648599 950.25170059 128.92690338 950.60001389 127.1875 950.94921875 C126.30433105 951.12477798 125.42116211 951.30033722 124.51123047 951.48121643 C120.2737593 952.34662943 116.11706357 953.29490162 111.9765625 954.54858398 C97.04902928 958.99452986 82.17905454 958.9090245 66.74676514 958.87780762 C61.12180761 958.87036441 55.49702848 958.90233164 49.8722229 958.94025612 C47.94046912 958.94892495 46.00866702 958.94306292 44.0769043 958.93669128 C33.41978392 958.96994318 23.25020675 959.83641488 13.5 964.375 C12.82259766 964.68252197 12.14519531 964.99004395 11.44726562 965.30688477 C5.70193628 967.99538671 0.52316913 971.13505791 -4.375 975.1875 C-5.09171875 975.78046875 -5.8084375 976.3734375 -6.546875 976.984375 C-12.72532928 982.60537476 -18.02423764 990.11582128 -18.61328125 998.6328125 C-17.83445286 1010.25139992 -13.51107138 1020.86132421 -9.0625 1031.5 C-8.61285889 1032.58450439 -8.16321777 1033.66900879 -7.69995117 1034.78637695 C-3.41080875 1044.76900389 1.90389489 1053.67761432 9.1875 1061.75 C10.59182488 1063.39379974 11.98423115 1065.04703122 13.37402344 1066.703125 C14.45831191 1067.98971242 15.559692 1069.26185862 16.6640625 1070.53125 C24.72033356 1081.37476176 20.73411133 1098.32827534 19.34887695 1110.8762207 C17.06092115 1131.63601189 17.06092115 1131.63601189 24.375 1150.5625 C37.83418594 1164.24553934 68.76026794 1162.99459301 86.36767578 1163.98681641 C88.51366481 1164.11903069 90.65824759 1164.27695385 92.80029297 1164.46240234 C106.5280431 1165.87046901 106.5280431 1165.87046901 118.6340332 1160.34790039 C120.92494625 1158.24524636 123.06495263 1156.04217925 125.15771484 1153.74316406 C127.31180074 1151.45933123 129.72348563 1149.56378098 132.1875 1147.625 C135.70067268 1144.77508116 139.17207011 1141.88485089 142.61303711 1138.94873047 C151.09937904 1131.7144318 151.09937904 1131.7144318 155.125 1128.5 C155.6921875 1128.04238281 156.259375 1127.58476563 156.84375 1127.11328125 C159.28793854 1125.84294642 160.89710611 1125.88314395 163.625 1126.1875 C165.33496094 1127.7253418 165.33496094 1127.7253418 166.859375 1129.88671875 C167.71378174 1131.07273682 167.71378174 1131.07273682 168.58544922 1132.28271484 C169.17600098 1133.13816895 169.76655273 1133.99362305 170.375 1134.875 C170.99262207 1135.74334473 171.61024414 1136.61168945 172.24658203 1137.50634766 C174.05467935 1140.05637371 175.84074687 1142.62076136 177.625 1145.1875 C178.50095524 1146.42174484 179.378343 1147.65497556 180.2578125 1148.88671875 C187.69931798 1159.4266908 194.32023222 1170.39400579 200.48046875 1181.7199707 C202.57032004 1185.51452442 204.79720288 1188.87566553 207.625 1192.1875 C207.92792969 1191.43726563 208.23085938 1190.68703125 208.54296875 1189.9140625 C210.58322866 1184.9295506 212.63582663 1180.08686871 215.25 1175.375 C219.72742495 1166.64542934 221.04187002 1155.90633304 221.625 1146.1875 C221.67785156 1145.37539062 221.73070312 1144.56328125 221.78515625 1143.7265625 C222.86791101 1111.62052999 200.65867284 1081.3111494 183.71484375 1055.8046875 C165.8102252 1028.73453369 147.82522111 998.80010429 150.625 965.1875 C152.20406392 957.55385385 156.02908217 951.39198907 160.625 945.1875 C156.31705167 945.1875 152.38594898 945.91676754 148.1875 946.76171875 Z M395.28515625 983.76171875 C394.53573257 983.92570663 393.7863089 984.08969452 393.01417542 984.25865173 C349.02430037 992.08916565 349.02430037 992.08916565 314.97265625 1018.56640625 C306.04694432 1032.86063928 305.74577333 1046.40938238 308 1062.6875 C308.12632812 1063.65558594 308.25265625 1064.62367187 308.3828125 1065.62109375 C309.06688037 1070.95528507 309.06688037 1070.95528507 310.11697388 1076.22494507 C311.93084943 1083.9975596 311.88032519 1091.67116795 311.8203125 1099.6015625 C311.81657409 1101.06700445 311.81373104 1102.53244893 311.81173706 1103.99789429 C311.80416565 1107.82174802 311.78457444 1111.64544552 311.7623291 1115.46923828 C311.74172933 1119.38441862 311.73270538 1123.29962463 311.72265625 1127.21484375 C311.70132118 1134.87246642 311.66726554 1142.52996117 311.625 1150.1875 C319.93178871 1153.91625993 328.26712676 1157.57478833 336.625 1161.1875 C337.34222229 1161.50375336 338.05944458 1161.82000671 338.79840088 1162.14584351 C349.20486636 1166.68065224 360.14948451 1167.8216234 371.32226562 1169.12817383 C374.51655143 1169.50193668 377.70739978 1169.89836022 380.8984375 1170.29882812 C382.95036097 1170.5507845 385.00243968 1170.80148054 387.0546875 1171.05078125 C388.46897537 1171.22411736 388.46897537 1171.22411736 389.91183472 1171.4009552 C395.19136427 1172.01423449 400.31005667 1172.30057563 405.625 1172.1875 C405.8516333 1171.46570557 406.0782666 1170.74391113 406.31176758 1170.00024414 C407.34121266 1166.74606407 408.38907078 1163.49811085 409.4375 1160.25 C409.79392578 1159.11369141 410.15035156 1157.97738281 410.51757812 1156.80664062 C410.86884766 1155.72705078 411.22011719 1154.64746094 411.58203125 1153.53515625 C411.90147705 1152.53492432 412.22092285 1151.53469238 412.55004883 1150.50415039 C412.90478271 1149.73965576 413.2595166 1148.97516113 413.625 1148.1875 C416.88760723 1147.09996426 417.78970271 1147.28681658 421 1148.125 C424.2975403 1148.92652285 427.20933549 1149.40786545 430.625 1149.1875 C429.22796069 1144.35035233 427.13169544 1140.03598054 424.89306641 1135.55078125 C402.52690025 1090.59336173 395.0080918 1031.73472218 403.625 982.1875 C400.8693974 982.1875 397.98141819 983.17015226 395.28515625 983.76171875 Z " fill="#000000" transform="translate(385.375,359.8125)"/>
<path d="M0 0 C4.95766508 2.24275325 6.7288887 7.45977898 9.14453125 12.1171875 C12.1111322 17.80027784 15.17407193 23.09896272 19 28.25 C25.04944209 36.39602133 30.18237998 45.12071501 35.37109375 53.82763672 C36.10385997 55.05584709 36.83692832 56.28387727 37.5703125 57.51171875 C37.92595276 58.10722534 38.28159302 58.70273193 38.64801025 59.31628418 C40.51657463 62.42222235 42.44346687 65.44834326 44.5546875 68.39453125 C53.96881258 81.66302967 57.9036753 97.79105159 62.625 113.1875 C63.285 113.1875 63.945 113.1875 64.625 113.1875 C65.64438721 111.49360808 66.5878469 109.75396604 67.5 108 C71.48512057 100.96597221 76.49523203 95.44890893 82.13916016 89.70410156 C83.50911316 88.30578607 84.85534867 86.88433859 86.19921875 85.4609375 C95.06491267 76.23833159 105.14552911 69.36312434 115.9375 62.625 C116.84153564 62.05773193 117.74557129 61.49046387 118.67700195 60.90600586 C122.74330926 58.39885762 126.73469052 56.04375692 131.13671875 54.17578125 C137.87382836 51.51319516 137.87382836 51.51319516 142.65332031 46.32617188 C144.3213516 42.02451111 145.24716279 37.58325913 146.17431641 33.07519531 C147.91961399 25.76498898 153.65035774 20.35041088 159.625 16.1875 C184.65799378 2.17054294 214.54531999 6.2124461 241.08862305 13.30883789 C245.30152393 14.50186835 249.47056883 15.80535271 253.625 17.1875 C254.30175781 17.41131348 254.97851562 17.63512695 255.67578125 17.86572266 C268.58669065 22.26687024 280.5224208 29.32365532 291.76953125 36.96875 C292.40366943 37.39631592 293.03780762 37.82388184 293.69116211 38.2644043 C295.38831445 39.42370892 297.06603397 40.61131808 298.7421875 41.80078125 C301.49262303 43.52159641 301.49262303 43.52159641 304.04174805 42.46899414 C306.58951998 41.20510085 308.62076259 39.84174115 310.83984375 38.0703125 C311.99323242 37.15958984 311.99323242 37.15958984 313.16992188 36.23046875 C313.95947266 35.59753906 314.74902344 34.96460938 315.5625 34.3125 C317.13256074 33.06314896 318.70414347 31.81570787 320.27734375 30.5703125 C321.0245166 29.97387939 321.77168945 29.37744629 322.54150391 28.76293945 C324.625 27.1875 324.625 27.1875 327.89453125 25.30078125 C331.78112473 22.29270246 333.27209662 18.61182016 335.375 14.25 C338.67435047 7.87533682 341.2607992 3.11245082 348.37890625 0.625 C352.54190051 -0.18587888 354.78584421 0.21068697 358.5078125 2.1875 C361.38130335 4.14193912 363.3308673 5.92976179 364.13964844 9.38818359 C364.77777902 20.08380703 364.99585732 30.78689474 365.0625 41.5 C365.06933807 42.52341492 365.07617615 43.54682983 365.08322144 44.60125732 C365.13142415 59.18307997 364.51409495 72.55724144 359.28930664 86.35205078 C358.59324189 88.27524624 358.0902026 90.19708367 357.625 92.1875 C358.08648438 92.57679688 358.54796875 92.96609375 359.0234375 93.3671875 C363.89965039 97.54955192 368.4563129 101.96019973 372.9375 106.5625 C375.0160166 108.592679 377.10831807 110.48873097 379.30859375 112.37890625 C384.32951761 116.7332003 389.00054784 121.4168559 393.6875 126.125 C394.97624023 127.40793945 394.97624023 127.40793945 396.29101562 128.71679688 C400.69713594 133.12964923 404.95525529 137.60525916 409.01831055 142.33569336 C411.59353791 145.30379845 414.30408953 148.14196362 417 151 C421.64815533 155.96723093 426.06978536 161.04326033 430.32421875 166.35546875 C432.98407488 169.62948521 435.73696294 172.81316272 438.5 176 C442.50319456 180.62422727 446.33629959 185.33799976 450.0625 190.1875 C457.22410037 199.47241526 465.2973231 207.94465512 473.625 216.1875 C474.12902344 216.70054687 474.63304687 217.21359375 475.15234375 217.7421875 C484.6822773 226.66495076 498.17468882 231.09091396 510.625 234.1875 C511.6135498 234.4352417 511.6135498 234.4352417 512.62207031 234.68798828 C534.76988948 239.88879963 559.23884409 237.99610206 581.6875 235.6875 C582.35724854 235.61867615 583.02699707 235.54985229 583.71704102 235.47894287 C584.37696045 235.41096497 585.03687988 235.34298706 585.71679688 235.27294922 C602.75940205 233.52008157 616.68241224 232.25893356 631.81201172 241.78637695 C632.5275119 242.23616409 633.24301208 242.68595123 633.98019409 243.14936829 C634.52298004 243.49195175 635.06576599 243.83453522 635.625 244.1875 C635.77122803 243.01654785 635.91745605 241.8455957 636.06811523 240.63916016 C636.61048179 236.30389252 637.15765485 231.96924292 637.70629883 227.63476562 C637.94329342 225.75700175 638.17897589 223.8790718 638.41333008 222.00097656 C638.74998465 219.30489301 639.09131964 216.60943766 639.43359375 213.9140625 C639.53780136 213.07130768 639.64200897 212.22855286 639.74937439 211.36026001 C640.51112829 205.41524341 640.51112829 205.41524341 641.625 203.1875 C643.275 203.1875 644.925 203.1875 646.625 203.1875 C646.75525587 232.72953238 646.60782666 262.26220357 646.21928024 291.8015213 C646.18775387 294.2304412 646.15767415 296.65937518 646.12796021 299.08831787 C645.7648235 328.45448527 645.7648235 328.45448527 645.125 338.609375 C644.21791358 353.02285465 644.26676124 367.49344773 644.09277344 381.93048096 C644.0528468 385.1544767 644.00860894 388.37840691 643.96433926 391.60234547 C643.73298547 408.55273652 643.60120809 425.49782179 643.63217163 442.44976807 C643.64690683 455.8303759 643.47208185 469.20576224 643.25268555 482.58422852 C643.19692406 485.9916685 643.14691041 489.39916766 643.09828281 492.80671597 C643.04942269 496.16156436 642.99509982 499.51631926 642.94140625 502.87109375 C642.92469376 504.06101425 642.90798126 505.25093475 642.89076233 506.47691345 C642.7848584 512.61888674 642.54308353 518.7273782 642.13548279 524.85700989 C641.5197614 534.7945733 641.37595342 544.72685841 641.25195312 554.68066406 C641.22420458 556.67910214 641.19611307 558.67753548 641.16770935 560.67596436 C641.10767041 564.95082199 641.0500043 569.22570237 640.99424744 573.50061798 C640.90538957 580.31099422 640.81099493 587.12128739 640.71594238 593.93157959 C640.56552874 604.75360984 640.41866449 615.57568479 640.27337503 626.39778495 C640.01491314 645.64791124 639.75214774 664.89797799 639.48551702 684.14799285 C639.39263907 690.86506161 639.30185402 697.58215419 639.21276522 704.29927421 C638.92608178 725.82747913 638.58983904 747.353124 638.10742188 768.87792969 C638.07615157 770.27385432 638.07615157 770.27385432 638.04424953 771.69797945 C637.80161048 782.42505497 637.52954596 793.15057285 637.1875 803.875 C637.14759319 805.30262476 637.14759319 805.30262476 637.10688019 806.75909042 C636.85818029 812.95431971 636.85818029 812.95431971 634.625 815.1875 C631.74248097 815.00287585 628.97831416 814.71418015 626.125 814.3125 C621.32141397 813.65746554 616.68233327 813.13153304 611.828125 813.25 C605.70102582 813.3175783 599.87781282 812.20036312 593.875 811.0625 C592.03808594 810.72472534 592.03808594 810.72472534 590.1640625 810.38012695 C580.39387488 808.56624983 570.65531494 806.60044132 560.91748047 804.62158203 C549.97045699 802.41508769 538.99075471 800.41317617 528 798.4375 C511.51762707 795.47399278 495.06568404 792.37401193 478.625 789.1875 C462.41292196 786.04576903 446.19060555 782.98469906 429.9375 780.0625 C414.12105119 777.21776891 398.34041213 774.22092431 382.57250977 771.11889648 C380.88819146 770.78755767 379.20386534 770.45625859 377.51953125 770.125 C376.69316666 769.96246231 375.86680206 769.79992462 375.01539612 769.63246155 C366.30945751 767.92346876 357.59346913 766.26869987 348.875 764.625 C348.11833038 764.48230682 347.36166077 764.33961365 346.58206177 764.19259644 C342.78335918 763.47647127 338.98449329 762.76121715 335.18554688 762.04638672 C328.26991754 760.74465392 321.35579115 759.43497469 314.44152832 758.12600708 C310.58607843 757.39618994 306.73053454 756.66686975 302.875 755.9375 C301.33333288 755.64583572 299.79166621 755.35416906 298.25 755.0625 C297.486875 754.918125 296.72375 754.77375 295.9375 754.625 C293.625 754.1875 291.3125 753.75 289 753.3125 C288.2367894 753.16810989 287.4735788 753.02371979 286.6872406 752.87495422 C285.14643699 752.58344864 283.60563499 752.29193457 282.06483459 752.00041199 C278.19747631 751.26871096 274.33008974 750.53716002 270.46264648 749.8059082 C263.68250728 748.52378429 256.90250688 747.24097282 250.12367249 745.95196533 C246.47843123 745.25885517 242.83300383 744.56672766 239.1875 743.875 C238.44877655 743.73479431 237.7100531 743.59458862 236.94894409 743.45013428 C226.9398052 741.55216668 216.9253021 739.68477371 206.90625 737.83984375 C184.41305089 733.69663329 161.93497063 729.50486231 139.49758911 725.06842041 C123.70074556 721.94791675 107.87593591 719.00443313 92.03338623 716.12573242 C79.29508014 713.80935618 66.57466048 711.42449155 53.8762207 708.89819336 C51.73006633 708.47336161 49.5838086 708.0490519 47.4375 707.625 C46.64276213 707.46733973 45.84802425 707.30967945 45.02920341 707.14724159 C32.46007035 704.65794646 19.87812645 702.32700384 7.24404144 700.19358063 C-13.31689711 696.70761345 -33.8128078 692.89194603 -54.296875 688.984375 C-55.0258367 688.8453332 -55.75479839 688.70629139 -56.50584984 688.5630362 C-65.66825599 686.81487422 -74.82948452 685.0605831 -83.99037302 683.304488 C-92.85654597 681.60512589 -101.72376292 679.91123518 -110.59106445 678.21777344 C-111.40047426 678.06318995 -112.20988407 677.90860646 -113.04382145 677.74933863 C-116.31695077 677.12423898 -119.59008431 676.49916144 -122.86323148 675.87415528 C-127.76419962 674.93831119 -132.66509929 674.00210959 -137.56594807 673.06564069 C-168.55627375 667.14422368 -199.55696004 661.27873045 -230.5625 655.4375 C-232.86446321 655.00371314 -235.16642449 654.56991604 -237.46838379 654.1361084 C-249.77022389 651.81796334 -262.07238751 649.50154236 -274.375 647.1875 C-274.045 645.2075 -273.715 643.2275 -273.375 641.1875 C-261.32301183 641.86966417 -249.40716726 643.53744982 -237.44921875 645.12890625 C-235.24823462 645.41924548 -233.04720953 645.70927435 -230.84614563 645.99900818 C-225.09359301 646.75707493 -219.34160137 647.51931713 -213.58972168 648.2824707 C-207.70403175 649.06261233 -201.81781368 649.83874785 -195.93164062 650.61523438 C-184.41224405 652.13543273 -172.89343694 653.66004875 -161.375 655.1875 C-161.39820313 654.20007813 -161.42140625 653.21265625 -161.4453125 652.1953125 C-161.46335937 650.91398438 -161.48140625 649.63265625 -161.5 648.3125 C-161.52320313 647.03632812 -161.54640625 645.76015625 -161.5703125 644.4453125 C-161.375 641.1875 -161.375 641.1875 -159.375 639.1875 C-157.48779297 638.94026184 -157.48779297 638.94026184 -155.1171875 638.94458008 C-154.20518082 638.94154373 -153.29317413 638.93850739 -152.35353088 638.93537903 C-151.32936569 638.94252426 -150.3052005 638.94966949 -149.25 638.95703125 C-147.5860746 638.95717476 -147.5860746 638.95717476 -145.88853455 638.95732117 C-142.72611711 638.96048445 -139.56389986 638.97326074 -136.40153122 638.99026489 C-133.68095392 639.00333408 -130.96038039 639.00889047 -128.23977947 639.01470375 C-76.28488068 639.13212413 -24.32767201 639.71680397 27.625 640.1875 C27.93021576 639.56075378 28.23543152 638.93400757 28.54989624 638.28826904 C29.58841897 636.2589799 30.68528973 634.74005006 32.1640625 633.015625 C32.9051123 632.14852905 32.9051123 632.14852905 33.66113281 631.26391602 C34.18545898 630.66119873 34.70978516 630.05848145 35.25 629.4375 C35.78979492 628.81351318 36.32958984 628.18952637 36.88574219 627.54663086 C42.76081423 620.80711396 48.95587992 614.62485015 55.765625 608.828125 C56.37921875 608.28671875 56.9928125 607.7453125 57.625 607.1875 C58.56085938 606.37345703 58.56085938 606.37345703 59.515625 605.54296875 C62.59920164 602.0996415 64.79102981 598.2267188 67.125 594.25 C67.65053467 593.36610596 68.17606934 592.48221191 68.7175293 591.5715332 C71.87724065 586.23407475 74.95177351 580.85305384 77.99047852 575.44604492 C85.83245366 561.51254732 94.53482223 548.17812999 103.49609375 534.94140625 C110.8037212 524.04569081 116.92088068 512.56458431 123.0234375 500.96875 C125.60022446 496.07897379 128.26944123 491.26074494 131.03149414 486.47387695 C135.40047936 478.88914542 138.59368298 471.76754054 140.625 463.1875 C139.31789063 464.04021484 139.31789063 464.04021484 137.984375 464.91015625 C117.40141992 478.28485745 97.05237491 490.21771237 71.49609375 485.5 C54.96173437 481.96933722 43.50028615 474.00260298 34.1875 459.8125 C28.36303697 450.59550005 27.15206104 439.58762477 25.9375 428.9375 C25.8130249 427.84630859 25.6885498 426.75511719 25.56030273 425.63085938 C23.86095715 409.9174301 24.04157985 395.34770318 29.67358398 380.40551758 C32.86117657 371.53100954 32.86503429 363.98482497 32.32675171 354.74020386 C30.59648988 323.79835975 31.79751725 291.49958651 38.625 261.1875 C38.92198141 259.80498931 39.21761352 258.4221879 39.51171875 257.0390625 C40.00960122 254.7220875 40.51477675 252.40665196 41.03125 250.09375 C41.84040393 246.13315445 42.27798156 242.21291392 42.625 238.1875 C41.97023682 238.10081055 41.31547363 238.01412109 40.64086914 237.92480469 C36.60093111 236.93714073 33.10186558 235.20225315 29.37109375 233.390625 C28.56634109 233.00558807 27.76158844 232.62055115 26.93244934 232.22384644 C25.20522754 231.3967926 23.47920429 230.56723191 21.75427246 229.7354126 C17.20999517 227.54426352 12.65694782 225.3714506 8.10546875 223.1953125 C6.74737595 222.54494522 6.74737595 222.54494522 5.36184692 221.88143921 C-2.10975299 218.30555051 -9.60692026 214.78959133 -17.125 211.3125 C-18.21288818 210.808396 -19.30077637 210.30429199 -20.42163086 209.78491211 C-25.68968865 207.34633841 -30.96193414 204.91702068 -36.2376709 202.49511719 C-38.8604283 201.29019168 -41.48164639 200.08194071 -44.10266113 198.87322998 C-45.9572116 198.0196929 -47.81399752 197.17116229 -49.67089844 196.32275391 C-50.78239258 195.81019043 -51.89388672 195.29762695 -53.0390625 194.76953125 C-54.02342285 194.31811768 -55.0077832 193.8667041 -56.02197266 193.40161133 C-58.375 192.1875 -58.375 192.1875 -60.375 190.1875 C-60.086292 184.87264814 -58.48224179 180.51695276 -56.125 175.8125 C-55.83753906 175.18472656 -55.55007813 174.55695313 -55.25390625 173.91015625 C-53.94203858 171.25777751 -53.04523747 169.47593109 -50.2668457 168.28027344 C-45.95955996 168.1420912 -42.9218749 169.89183113 -39.12109375 171.7890625 C-38.31597855 172.1771106 -37.51086334 172.56515869 -36.68135071 172.96496582 C-34.05224544 174.23519796 -31.43266488 175.52394209 -28.8125 176.8125 C-26.99652768 177.69281187 -25.17978984 178.57154624 -23.36230469 179.44873047 C-19.72541178 181.20463535 -16.09111594 182.9657425 -12.45849609 184.73046875 C-5.71488837 187.99883628 1.07263233 191.16867828 7.875 194.3125 C8.98206299 194.82530518 10.08912598 195.33811035 11.22973633 195.86645508 C20.99549821 200.37944868 30.79931232 204.80669224 40.625 209.1875 C40.480625 208.35347656 40.33625 207.51945313 40.1875 206.66015625 C40.001875 205.53480469 39.81625 204.40945313 39.625 203.25 C39.439375 202.14785156 39.25375 201.04570313 39.0625 199.91015625 C36.91585999 181.64454972 41.1604283 163.75271391 48.625 147.1875 C46.78035156 146.97673828 46.78035156 146.97673828 44.8984375 146.76171875 C30.81218183 144.98621842 18.83439228 136.75227387 9.625 126.1875 C-9.21284921 101.49696978 -9.31117214 62.62950987 -10.27099609 33.03417969 C-10.35480066 30.740374 -10.46989304 28.45461284 -10.61328125 26.1640625 C-10.97539339 17.78375308 -9.27254524 8.02686851 -3.85546875 1.30078125 C-2.375 0.1875 -2.375 0.1875 0 0 Z M555.625 291.1875 C559.92683192 294.86862671 564.57439561 297.6453716 569.4375 300.5 C577.24759163 305.13549907 584.99046482 309.86658557 592.6875 314.6875 C594.1888147 315.62698486 594.1888147 315.62698486 595.72045898 316.58544922 C600.59307891 319.64047006 605.45456157 322.71185683 610.30078125 325.80859375 C611.18048584 326.36933594 612.06019043 326.93007813 612.96655273 327.5078125 C614.61844845 328.56227499 616.26783219 329.62068619 617.91430664 330.68359375 C618.64125732 331.14765625 619.36820801 331.61171875 620.1171875 332.08984375 C620.74995605 332.49710693 621.38272461 332.90437012 622.03466797 333.32397461 C623.61632723 334.3465594 623.61632723 334.3465594 625.625 334.1875 C626.22333395 329.72306691 626.81097676 325.25740234 627.38891602 320.7902832 C627.58685475 319.27199766 627.78766885 317.75408401 627.99145508 316.23657227 C628.28449886 314.05056594 628.56704907 311.86341445 628.84765625 309.67578125 C628.94031265 309.00162674 629.03296906 308.32747223 629.12843323 307.63288879 C629.59099844 303.93803332 629.8578432 300.738169 628.625 297.1875 C626.13955972 295.68951016 623.97914759 294.61725734 621.3125 293.5625 C620.5913501 293.26327637 619.8702002 292.96405273 619.12719727 292.65576172 C599.86423574 284.88063079 575.13715516 282.47333362 555.625 291.1875 Z M562.625 416.1875 C566.14750704 419.90023554 569.84030472 422.91297749 574.0625 425.8125 C584.53677683 433.15269745 594.46617677 441.16561575 604.3203125 449.3125 C606.38101944 450.98900734 608.49977023 452.59357767 610.625 454.1875 C611.285 448.2475 611.945 442.3075 612.625 436.1875 C603.44629649 431.36830995 594.11642194 427.46576472 584.44873047 423.75341797 C581.96690319 422.79978264 579.48915156 421.83608084 577.01171875 420.87109375 C575.43251782 420.25983207 573.85309886 419.64913332 572.2734375 419.0390625 C571.53394867 418.75165192 570.79445984 418.46424133 570.03256226 418.16812134 C566.43259239 416.69848258 566.43259239 416.69848258 562.625 416.1875 Z M-84.375 665.1875 C-84.375 665.5175 -84.375 665.8475 -84.375 666.1875 C-73.56173167 667.62783761 -62.7477333 669.06255124 -51.9327774 670.49016571 C-46.91054505 671.15329718 -41.88858081 671.81833523 -36.8671875 672.48779297 C-32.01782102 673.13424349 -27.1678057 673.77560407 -22.31730652 674.41349792 C-20.47039477 674.65728538 -18.62372065 674.90288044 -16.77729797 675.15034485 C-14.18352554 675.49765214 -11.58896901 675.83841924 -8.99414062 676.17773438 C-8.2374408 676.2805925 -7.48074097 676.38345062 -6.70111084 676.48942566 C-1.88608136 677.11030464 2.7695476 677.27603003 7.625 677.1875 C8.29854499 675.75320999 8.96359701 674.31492943 9.625 672.875 C10.181875 671.67423828 10.181875 671.67423828 10.75 670.44921875 C11.80540667 668.12536041 11.80540667 668.12536041 11.625 665.1875 C-20.055 665.1875 -51.735 665.1875 -84.375 665.1875 Z " fill="#000000" transform="translate(385.375,359.8125)"/>
<path d="M0 0 C1.50555337 0.00987402 3.01105825 0.03108737 4.51634216 0.06123352 C5.72495203 0.07400723 5.72495203 0.07400723 6.95797825 0.08703899 C9.46525793 0.11653714 11.97197192 0.16050917 14.47898865 0.20698547 C15.9374699 0.22891511 17.39595567 0.25054613 18.85444641 0.27183533 C28.04871126 0.41891213 37.24143407 0.66275579 46.43382263 0.89668274 C49.78232546 0.98106004 53.13086928 1.05704744 56.47972107 1.12617493 C60.56624718 1.21059742 64.65219956 1.3091431 68.73814583 1.41798973 C70.28460136 1.45682352 71.83119046 1.49067634 73.37786674 1.51940346 C75.52407139 1.56027537 77.66904497 1.61930063 79.81468201 1.68281555 C81.64186012 1.72611748 81.64186012 1.72611748 83.50595093 1.77029419 C86.47898865 2.20698547 86.47898865 2.20698547 88.29354858 3.49067688 C89.58690485 5.36322915 90.36210423 7.04219538 91.1103363 9.1920929 C91.53924667 10.40375374 91.53924667 10.40375374 91.9768219 11.63989258 C92.27917755 12.52183792 92.5815332 13.40378326 92.89305115 14.31245422 C93.38296036 15.70733818 93.38296036 15.70733818 93.88276672 17.13040161 C94.96443976 20.21571797 96.03406108 23.30507846 97.10398865 26.39448547 C97.8641444 28.56863266 98.62522673 30.74245609 99.38719177 32.91596985 C100.97120139 37.43669208 102.55119254 41.95878909 104.12840271 46.48188782 C107.36356561 55.75011598 110.64690791 65.00118044 113.93058777 74.25230408 C115.69906801 79.23636673 117.46382479 84.22174755 119.22898865 89.20698547 C119.93730447 91.20699167 120.6456378 93.20699168 121.35398865 95.20698547 C128.43732198 115.20698547 135.52065531 135.20698547 142.60398865 155.20698547 C142.95456833 156.19685455 143.30514801 157.18672363 143.66635132 158.20658875 C144.37514995 160.20790851 145.08394104 162.20923094 145.79272461 164.21055603 C147.55637732 169.19038554 149.32015824 174.17016956 151.08421326 179.14985657 C154.35725558 188.3896316 157.62910957 197.62982172 160.89649963 206.87159729 C162.41325074 211.16146432 163.93071479 215.45107901 165.44822693 219.74067688 C166.16033117 221.75422397 166.87209948 223.76788991 167.58348083 225.7816925 C167.91767029 226.72770325 168.25185974 227.67371399 168.59617615 228.64839172 C168.88484558 229.46589905 169.17351501 230.28340637 169.47093201 231.12568665 C172.51910204 239.72773151 175.59855016 248.31734377 178.72288513 256.89204407 C179.08684135 257.89188828 179.45079758 258.89173248 179.82578278 259.921875 C180.7098415 262.35037038 181.59424742 264.77873868 182.47898865 267.20698547 C182.33983788 265.55955085 182.33983788 265.55955085 182.19787598 263.87883472 C179.9422304 237.17264241 177.68898406 210.46624849 175.43826294 183.75964069 C174.34978238 170.8446134 173.26051825 157.92965309 172.16941833 145.0148468 C171.21857713 133.76018939 170.26919705 122.50540986 169.32158184 111.25048035 C168.81963501 105.28941656 168.31694959 99.3284171 167.81251526 93.36756325 C167.33794511 87.75933728 166.86532582 82.15095035 166.39421463 76.54243279 C166.22079218 74.48201031 166.04665164 72.42164812 165.87174606 70.36135101 C165.63334965 67.55190078 165.39752019 64.74224651 165.16233826 61.93252563 C165.05728265 60.70537754 165.05728265 60.70537754 164.95010471 59.45343858 C164.25113342 51.0324688 164.25113342 51.0324688 164.47898865 48.20698547 C166.47898865 46.20698547 166.47898865 46.20698547 168.44597721 46.1366272 C175.19906823 46.91449409 181.70572781 48.26658209 188.30686951 49.87495422 C189.44467865 50.14659393 190.58248779 50.41823364 191.754776 50.69810486 C195.48600759 51.5905847 199.21491093 52.49240679 202.9438324 53.39448547 C205.54539469 54.01896591 208.14707096 54.64295128 210.74890137 55.26631165 C216.18578155 56.56998461 221.62148493 57.87846597 227.05638123 59.19038391 C234.7217211 61.04068908 242.38925097 62.88178843 250.05718791 64.72129631 C256.01986016 66.15212234 261.98185465 67.58576894 267.9438324 69.01948547 C269.21621199 69.32534576 270.48859158 69.63120605 271.79952812 69.94633484 C275.3856736 70.80905625 278.97135325 71.67368446 282.55686951 72.53901672 C283.62440964 72.79567108 284.69194977 73.05232544 285.7918396 73.3167572 C286.76596802 73.55228302 287.74009644 73.78780884 288.7437439 74.0304718 C289.59078856 74.23473282 290.43783323 74.43899384 291.31054592 74.64944458 C293.05320877 75.09751074 294.7719815 75.63798309 296.47898865 76.20698547 C296.14898865 78.18698547 295.81898865 80.16698547 295.47898865 82.20698547 C282.20443574 79.74857741 269.0910841 76.59792944 255.95872498 73.48139954 C252.13108979 72.57358984 248.30218089 71.67129996 244.47312927 70.76948547 C242.0414115 70.19429071 239.60976805 69.61878158 237.1782074 69.04292297 C235.45968819 68.63824295 235.45968819 68.63824295 233.70645142 68.22538757 C232.6538765 67.9748764 231.60130157 67.72436523 230.51683044 67.46626282 C229.12575325 67.13675125 229.12575325 67.13675125 227.70657349 66.80058289 C225.47898865 66.20698547 225.47898865 66.20698547 223.47898865 65.20698547 C223.55630502 67.0436111 223.55630502 67.0436111 223.63518333 68.91734028 C224.91742596 99.46596802 226.06610047 130.0169498 227.09528017 160.57509208 C227.28500451 166.19883178 227.47654197 171.82250983 227.6678009 177.44619751 C227.98655187 186.82630089 228.30401142 196.20644722 228.62059021 205.58662415 C228.98594072 216.41153283 229.3532463 227.23637388 229.72157156 238.06118172 C230.07921304 248.57282715 230.43570102 259.08451136 230.79159164 269.5962162 C230.9419662 274.03747018 231.09270917 278.47871141 231.24374771 282.91994286 C231.42036645 288.11526947 231.59596403 293.31062962 231.7707653 298.50601768 C231.83491633 300.40798109 231.89941173 302.30993293 231.96427727 304.2118721 C232.05269377 306.80609361 232.13985687 309.40035431 232.22669983 311.99462891 C232.25257223 312.74526334 232.27844463 313.49589777 232.30510104 314.26927871 C232.37061525 316.24827872 232.425218 318.22763157 232.47898865 320.20698547 C232.5254421 321.32511533 232.57189556 322.44324518 232.6197567 323.59525776 C232.47898865 326.20698547 232.47898865 326.20698547 230.47898865 328.20698547 C227.77525056 328.36974538 225.18030305 328.41219497 222.47898865 328.35932922 C221.67590271 328.35102585 220.87281677 328.34272247 220.0453949 328.33416748 C217.52290196 328.30393065 215.00114601 328.25775027 212.47898865 328.20698547 C211.71328552 328.19290649 210.9475824 328.17882751 210.15867615 328.1643219 C200.29074828 327.97602112 190.42587898 327.6555528 180.56150818 327.33491516 C177.12679149 327.22436434 173.69189526 327.13897336 170.2563324 327.05854797 C168.64299714 327.00547773 167.02970729 326.9509896 165.41648865 326.89448547 C164.10551208 326.85710266 162.79453552 326.81971985 161.4438324 326.78120422 C158.47898865 326.20698547 158.47898865 326.20698547 156.91384888 324.44766235 C155.51049582 322.25618706 154.50977017 320.19965096 153.55638123 317.78193665 C153.20718628 316.90550003 152.85799133 316.02906342 152.49821472 315.12606812 C152.12706543 314.17695053 151.75591614 313.22783295 151.3735199 312.24995422 C150.77969513 310.75382851 150.77969513 310.75382851 150.1738739 309.22747803 C149.32070676 307.07650323 148.47020634 304.92446919 147.62208557 302.77149963 C145.36298804 297.03797942 143.08381299 291.31243988 140.80711365 285.58589172 C140.35002518 284.43469849 139.89293671 283.28350525 139.42199707 282.09742737 C135.53282245 272.3125965 131.55840153 262.5649336 127.54148865 252.83198547 C121.30901169 237.71253207 115.15909349 222.56077494 109.04148865 207.39448547 C108.59514069 206.28799652 108.14879272 205.18150757 107.68891907 204.04148865 C105.90356361 199.61528228 104.11839992 195.18899867 102.33358765 190.76257324 C98.09895504 180.2614073 93.85343862 169.76466279 89.60398865 159.26948547 C89.25998016 158.41982208 88.91597168 157.57015869 88.5615387 156.69474792 C86.53529479 151.69037721 84.50855523 146.68620741 82.48155212 141.68214417 C81.46722505 139.17794315 80.45306905 136.67367291 79.43894958 134.16938782 C72.14947961 116.1693749 64.85306427 98.17255182 57.47898865 80.20698547 C56.28352258 84.94171018 56.29668526 89.57240311 56.25157166 94.42314148 C56.23297238 95.82015854 56.23297238 95.82015854 56.21399736 97.24539816 C56.17354017 100.36846057 56.13976819 103.49155957 56.10594177 106.61470032 C56.07827241 108.85395817 56.05018072 111.09321084 56.021698 113.3324585 C55.96117788 118.15924162 55.90358897 122.98604779 55.84823608 127.81289291 C55.76039945 135.46479779 55.66566377 143.11660777 55.56993103 150.76841736 C55.43612901 161.51711412 55.30508613 172.26583958 55.17674255 183.01460266 C55.16859852 183.69657403 55.16045449 184.37854539 55.15206367 185.08118255 C55.11909408 187.8426402 55.08613809 190.60409802 55.05319843 193.36555602 C54.96297777 200.92793877 54.87227235 208.49031565 54.78123474 216.0526886 C54.77310188 216.72836669 54.76496902 217.40404477 54.75658971 218.10019796 C54.6200791 229.43339315 54.48067193 240.76655086 54.33950567 252.09968913 C54.24526724 259.68425448 54.15461419 267.26885124 54.06687164 274.85349441 C54.01116058 279.60843886 53.95244951 284.36334313 53.89300728 289.11824226 C53.86635818 291.29842327 53.84091153 293.47861941 53.81686211 295.65883064 C53.69335117 306.79820167 53.48274849 317.93241045 53.08067322 329.0655365 C53.05123107 330.05444866 53.02178893 331.04336081 52.9914546 332.06224 C52.95465353 332.97062454 52.91785247 333.87900908 52.87993622 334.81492043 C52.83636639 336.01795309 52.83636639 336.01795309 52.79191637 337.24528944 C52.47898865 339.20698547 52.47898865 339.20698547 50.47898865 341.20698547 C48.58494568 341.37397766 48.58494568 341.37397766 46.23680115 341.25386047 C44.9041925 341.19222717 44.9041925 341.19222717 43.54466248 341.12934875 C42.57424011 341.07246887 41.60381775 341.01558899 40.60398865 340.95698547 C39.60198425 340.90397278 38.59997986 340.85096008 37.56761169 340.79634094 C35.38230366 340.67641041 33.19732828 340.55030218 31.01268005 340.41889954 C28.58048316 340.27304166 26.14782103 340.13480645 23.71482849 340.00288391 C19.90593206 339.79511714 16.09881558 339.56663285 12.29148865 339.33198547 C11.08057556 339.26592102 9.86966248 339.19985657 8.62205505 339.13179016 C7.48816345 339.05605774 6.35427185 338.98032532 5.1860199 338.90229797 C3.67745422 338.80972717 3.67745422 338.80972717 2.13841248 338.71528625 C-1.01832858 338.11193228 -2.2805921 337.51580598 -4.52101135 335.20698547 C-4.96490669 332.05895519 -4.96490669 332.05895519 -4.88529968 328.08691406 C-4.87633136 327.3559754 -4.86736304 326.62503674 -4.85812294 325.87194842 C-4.82334871 323.41220814 -4.75998272 320.95400219 -4.69728088 318.49482727 C-4.66750807 316.7328813 -4.63971371 314.97090095 -4.61375046 313.20889473 C-4.55421771 309.39496665 -4.48278797 305.58151322 -4.40235519 301.76796913 C-4.20743588 292.45621757 -4.0782787 283.14340945 -3.9413178 273.83065975 C-3.89258241 270.5577344 -3.84153731 267.28485047 -3.79027367 264.01196384 C-3.45164979 241.92394591 -3.38987223 219.83776659 -3.38841534 197.74748087 C-3.38819843 194.65795129 -3.38724812 191.56842266 -3.38613129 188.47889328 C-3.38254926 177.11722855 -3.38582988 165.75557699 -3.39244676 154.3939141 C-3.39682777 145.93754809 -3.39363817 137.48119671 -3.38881385 129.02483159 C-3.38368375 119.63869034 -3.3842797 110.25255694 -3.38719559 100.86641502 C-3.38828358 96.97138338 -3.38741576 93.07636053 -3.38471603 89.18132973 C-3.30444784 48.31635896 -3.30444784 48.31635896 -5.39201546 7.51687145 C-5.51132804 5.75041204 -5.52744164 3.97745801 -5.52101135 2.20698547 C-3.52101135 0.20698547 -3.52101135 0.20698547 0 0 Z " fill="#000000" transform="translate(443.52101135253906,1652.7930145263672)"/>
<path d="M0 0 C1.65 0 3.3 0 5 0 C5.13025587 29.54203238 4.98282666 59.07470357 4.59428024 88.6140213 C4.56275387 91.0429412 4.53267415 93.47187518 4.50296021 95.90081787 C4.1398235 125.26698527 4.1398235 125.26698527 3.5 135.421875 C2.59291358 149.83535465 2.64176124 164.30594773 2.46777344 178.74298096 C2.4278468 181.9669767 2.38360894 185.19090691 2.33933926 188.41484547 C2.10798547 205.36523652 1.97620809 222.31032179 2.00717163 239.26226807 C2.02190683 252.6428759 1.84708185 266.01826224 1.62768555 279.39672852 C1.57192406 282.8041685 1.52191041 286.21166766 1.47328281 289.61921597 C1.42442269 292.97406436 1.37009982 296.32881926 1.31640625 299.68359375 C1.29969376 300.87351425 1.28298126 302.06343475 1.26576233 303.28941345 C1.1598584 309.43138674 0.91808353 315.5398782 0.51048279 321.66950989 C-0.1052386 331.6070733 -0.24904658 341.53935841 -0.37304688 351.49316406 C-0.40079542 353.49160214 -0.42888693 355.49003548 -0.45729065 357.48846436 C-0.51732959 361.76332199 -0.5749957 366.03820237 -0.63075256 370.31311798 C-0.71961043 377.12349422 -0.81400507 383.93378739 -0.90905762 390.74407959 C-1.05947126 401.56610984 -1.20633551 412.38818479 -1.35162497 423.21028495 C-1.61008686 442.46041124 -1.87285226 461.71047799 -2.13948298 480.96049285 C-2.23236093 487.67756161 -2.32314598 494.39465419 -2.41223478 501.11177421 C-2.69891822 522.63997913 -3.03516096 544.165624 -3.51757812 565.69042969 C-3.54884843 567.08635432 -3.54884843 567.08635432 -3.58075047 568.51047945 C-3.82338952 579.23755497 -4.09545404 589.96307285 -4.4375 600.6875 C-4.47740681 602.11512476 -4.47740681 602.11512476 -4.51811981 603.57159042 C-4.76681971 609.76681971 -4.76681971 609.76681971 -7 612 C-9.88251903 611.81537585 -12.64668584 611.52668015 -15.5 611.125 C-20.30358603 610.46996554 -24.94266673 609.94403304 -29.796875 610.0625 C-35.92397418 610.1300783 -41.74718718 609.01286312 -47.75 607.875 C-49.58691406 607.53722534 -49.58691406 607.53722534 -51.4609375 607.19262695 C-61.23112512 605.37874983 -70.96968506 603.41294132 -80.70751953 601.43408203 C-91.65454301 599.22758769 -102.63424529 597.22567617 -113.625 595.25 C-130.10737293 592.28649278 -146.55931596 589.18651193 -163 586 C-179.21207804 582.85826903 -195.43439445 579.79719906 -211.6875 576.875 C-227.50394881 574.03026891 -243.28458787 571.03342431 -259.05249023 567.93139648 C-260.73680854 567.60005767 -262.42113466 567.26875859 -264.10546875 566.9375 C-264.93183334 566.77496231 -265.75819794 566.61242462 -266.60960388 566.44496155 C-275.31554249 564.73596876 -284.03153087 563.08119987 -292.75 561.4375 C-293.50666962 561.29480682 -294.26333923 561.15211365 -295.04293823 561.00509644 C-298.84164082 560.28897127 -302.64050671 559.57371715 -306.43945312 558.85888672 C-313.35508246 557.55715392 -320.26920885 556.24747469 -327.18347168 554.93850708 C-331.03892157 554.20868994 -334.89446546 553.47936975 -338.75 552.75 C-340.29166712 552.45833572 -341.83333379 552.16666906 -343.375 551.875 C-344.138125 551.730625 -344.90125 551.58625 -345.6875 551.4375 C-348 551 -350.3125 550.5625 -352.625 550.125 C-353.3882106 549.98060989 -354.1514212 549.83621979 -354.9377594 549.68745422 C-356.47856301 549.39594864 -358.01936501 549.10443457 -359.56016541 548.81291199 C-363.42752369 548.08121096 -367.29491026 547.34966002 -371.16235352 546.6184082 C-377.94249272 545.33628429 -384.72249312 544.05347282 -391.50132751 542.76446533 C-395.14656877 542.07135517 -398.79199617 541.37922766 -402.4375 540.6875 C-403.17622345 540.54729431 -403.9149469 540.40708862 -404.67605591 540.26263428 C-414.6851948 538.36466668 -424.6996979 536.49727371 -434.71875 534.65234375 C-457.21194911 530.50913329 -479.69002937 526.31736231 -502.12741089 521.88092041 C-517.92425444 518.76041675 -533.74906409 515.81693313 -549.59161377 512.93823242 C-562.32991986 510.62185618 -575.05033952 508.23699155 -587.7487793 505.71069336 C-589.89493367 505.28586161 -592.0411914 504.8615519 -594.1875 504.4375 C-594.98223787 504.27983973 -595.77697575 504.12217945 -596.59579659 503.95974159 C-609.16492965 501.47044646 -621.74687355 499.13950384 -634.38095856 497.00608063 C-654.94189711 493.52011345 -675.4378078 489.70444603 -695.921875 485.796875 C-696.6508367 485.6578332 -697.37979839 485.51879139 -698.13084984 485.3755362 C-707.29325599 483.62737422 -716.45448452 481.8730831 -725.61537302 480.116988 C-734.48154597 478.41762589 -743.34876292 476.72373518 -752.21606445 475.03027344 C-753.02547426 474.87568995 -753.83488407 474.72110646 -754.66882145 474.56183863 C-757.94195077 473.93673898 -761.21508431 473.31166144 -764.48823148 472.68665528 C-769.38919962 471.75081119 -774.29009929 470.81460959 -779.19094807 469.87814069 C-810.18127375 463.95672368 -841.18196004 458.09123045 -872.1875 452.25 C-874.48946321 451.81621314 -876.79142449 451.38241604 -879.09338379 450.9486084 C-891.39522389 448.63046334 -903.69738751 446.31404236 -916 444 C-915.67 442.02 -915.34 440.04 -915 438 C-903.10166796 438.68251873 -891.33823737 440.30436157 -879.53125 441.87109375 C-877.36140345 442.15659981 -875.19152159 442.44183767 -873.02160645 442.7268219 C-868.49279793 443.32233636 -863.96429953 443.92013761 -859.43603516 444.51977539 C-853.66384484 445.28408431 -847.89110047 446.0441043 -842.11814117 446.80258083 C-837.64300769 447.39077815 -833.16808063 447.98053316 -828.69322205 448.57081795 C-826.56603488 448.85137278 -824.43880791 449.1316261 -822.3115387 449.41155815 C-811.52176074 450.83281096 -800.74902112 452.29507543 -790 454 C-771.73078647 456.74314862 -753.41925732 459.11815451 -735.0625 461.1875 C-714.37101547 463.52359085 -693.72108908 466.17147411 -673.07126999 468.84674454 C-670.4500047 469.18588215 -667.82856006 469.52360003 -665.20706177 469.8609314 C-661.02869827 470.39886906 -656.85084648 470.94062398 -652.67335892 471.48532104 C-651.11847884 471.68760552 -649.56345637 471.88879901 -648.00828171 472.08880615 C-640.65681426 473.03550511 -633.35516788 474.03561248 -626.10017395 475.57423401 C-623.01444448 476.1998006 -619.91592165 476.57234466 -616.7890625 476.9296875 C-615.46354121 477.08463153 -614.1380204 477.23957961 -612.8125 477.39453125 C-612.13058594 477.47268066 -611.44867187 477.55083008 -610.74609375 477.63134766 C-599.47242962 478.9263657 -588.22725477 480.34533707 -577 482 C-566.8490552 483.49222827 -556.6879841 484.79504554 -546.5 486 C-536.31199971 487.20495638 -526.15103887 488.50835638 -516 490 C-506.0160525 491.46608938 -496.02043124 492.75376125 -486 493.9375 C-473.55226768 495.40814289 -461.13984838 497.06433921 -448.72949219 498.82147217 C-437.14437986 500.45881061 -425.54843452 501.93451941 -413.92919922 503.30712891 C-403.45984068 504.54656186 -393.02645642 505.96749791 -382.59570312 507.50024414 C-373.57889417 508.81039519 -364.54760915 509.9299201 -355.5 511 C-344.17253838 512.33972288 -332.88376966 513.84142076 -321.59765625 515.5 C-312.58017976 516.81014414 -303.54825629 517.92978035 -294.5 519 C-284.47964483 520.18538461 -274.4830098 521.46421048 -264.5 522.9375 C-252.85459079 524.65366557 -241.18701714 526.10101093 -229.5 527.5 C-216.70394105 529.03174642 -203.94142574 530.66913729 -191.19140625 532.55078125 C-181.60765372 533.95052838 -172.0014006 535.11274105 -162.3840332 536.25027466 C-151.76888135 537.50865009 -141.19159043 538.94232163 -130.61523438 540.49780273 C-120.72184738 541.93600807 -110.80759945 543.13847052 -100.88040161 544.31335449 C-89.55028447 545.65674609 -78.26563095 547.19311873 -67 549 C-66.9575415 548.18402344 -66.91508301 547.36804687 -66.87133789 546.52734375 C-66.17158834 534.63241031 -64.82326109 522.83195133 -63.4375 511 C-63.30916779 509.89450806 -63.18083557 508.78901611 -63.0486145 507.65002441 C-59.88505445 480.42288888 -56.39061345 453.23786586 -52.90332031 426.05078125 C-51.69401113 416.61874079 -50.49573699 407.1853468 -49.3125 397.75 C-49.21294006 396.95688416 -49.11338013 396.16376831 -49.01080322 395.34661865 C-47.94299925 386.82182034 -46.908203 378.29423993 -45.9375 369.7578125 C-45.84714478 368.96416794 -45.75678955 368.17052338 -45.66369629 367.35282898 C-45.52562561 366.13971794 -45.52562561 366.13971794 -45.38476562 364.90209961 C-45.19401257 363.22639949 -45.00325733 361.55069963 -44.8125 359.875 C-44.71815674 359.04437042 -44.62381348 358.21374084 -44.52661133 357.35794067 C-42.97880657 343.79233108 -41.27878931 330.24807779 -39.53125 316.70703125 C-39.36553781 315.42182587 -39.36553781 315.42182587 -39.19647789 314.11065674 C-38.07375749 305.40604536 -36.94613323 296.70210101 -35.80658627 287.99967575 C-35.2703488 283.8999177 -34.73745943 279.7997323 -34.20703125 275.69921875 C-34.10468988 274.90808685 -34.00234852 274.11695496 -33.8969059 273.30184937 C-32.61268567 263.32760946 -31.50013325 253.36506461 -30.67012024 243.3412323 C-30.120644 236.86586315 -29.27079052 230.47014634 -28.31156921 224.04402161 C-26.20215061 209.81308366 -24.47169378 195.52832084 -22.66601562 181.25634766 C-22.22430156 177.76614222 -21.78026599 174.2762454 -21.33398438 170.78662109 C-19.02362855 152.71876749 -16.74134878 134.65877557 -14.9822998 116.52734375 C-14.20460616 108.57124322 -13.18403304 100.66468085 -12.0625 92.75 C-11.95791977 92.00532471 -11.85333954 91.26064941 -11.74559021 90.4934082 C-11.50918939 88.81567577 -11.27032688 87.13829069 -11.03125 85.4609375 C-9.95450891 77.77600156 -8.99045495 70.07914887 -8.0625 62.375 C-7.98269897 61.71406342 -7.90289795 61.05312683 -7.82067871 60.37216187 C-6.73890121 51.39110404 -5.69987253 42.40532482 -4.671875 33.41796875 C-4.44395924 31.43245096 -4.21601335 29.44693663 -3.98803711 27.46142578 C-3.5414602 23.57098988 -3.10037109 19.67998214 -2.66235352 15.78857422 C-2.45865884 14.00616629 -2.25480907 12.22377608 -2.05078125 10.44140625 C-1.95927795 9.61593796 -1.86777466 8.79046967 -1.77349854 7.93998718 C-1.11354669 2.22709337 -1.11354669 2.22709337 0 0 Z " fill="#CE0000" transform="translate(1027,563)"/>
<path d="M0 0 C1.53333984 -0.00386719 1.53333984 -0.00386719 3.09765625 -0.0078125 C4.16886719 -0.00007813 5.24007812 0.00765625 6.34375 0.015625 C7.95056641 0.00402344 7.95056641 0.00402344 9.58984375 -0.0078125 C10.61207031 -0.00523437 11.63429688 -0.00265625 12.6875 0 C13.62787109 0.00225586 14.56824219 0.00451172 15.53710938 0.00683594 C17.84375 0.265625 17.84375 0.265625 19.84375 2.265625 C20.04145162 4.98170967 20.112979 7.59593419 20.09771729 10.31323242 C20.10083727 11.15474193 20.10395725 11.99625143 20.10717177 12.86326122 C20.11518578 15.69927545 20.10881495 18.53507771 20.10253906 21.37109375 C20.10524742 23.39767584 20.10880747 25.42425695 20.11315918 27.45083618 C20.12230398 32.96722943 20.11873033 38.48354817 20.11240101 43.99994278 C20.10735181 49.76192685 20.11202944 55.52390436 20.11517334 61.28588867 C20.11881615 70.96371613 20.11400565 80.6415131 20.10449219 90.31933594 C20.09360705 101.52219301 20.0971324 112.7249773 20.108145 123.9278326 C20.11720893 133.53122806 20.11850754 143.13460156 20.11326766 152.73799992 C20.11014303 158.48032386 20.10975209 164.22261354 20.11634064 169.9649353 C20.12210049 175.36242469 20.11814224 180.75981987 20.10655212 186.15729904 C20.10389823 188.14312966 20.10468297 190.12896815 20.10907745 192.11479568 C20.1145057 194.81597822 20.10773212 197.51685478 20.09771729 200.21801758 C20.10217873 201.012363 20.10664017 201.80670843 20.11123681 202.62512493 C20.07205009 208.03732491 20.07205009 208.03732491 17.84375 210.265625 C14.21730496 210.71857833 10.55773262 210.58967302 6.90625 210.578125 C5.89111328 210.59423828 4.87597656 210.61035156 3.83007812 210.62695312 C2.36924805 210.62791992 2.36924805 210.62791992 0.87890625 210.62890625 C-0.0143335 210.63188721 -0.90757324 210.63486816 -1.82788086 210.63793945 C-4.15625 210.265625 -4.15625 210.265625 -5.77838421 209.25047398 C-7.94730398 206.12609261 -7.56483517 202.80558529 -7.5304718 199.13572693 C-7.53444621 198.29744655 -7.53842061 197.45916618 -7.54251546 196.59548336 C-7.55216802 193.77629419 -7.5403026 190.95760313 -7.52856445 188.13842773 C-7.53099142 186.1215496 -7.53470982 184.10467267 -7.53962708 182.08779907 C-7.54905206 176.60241624 -7.53959744 171.11721134 -7.52629495 165.63184237 C-7.51500194 159.90056239 -7.51908625 154.16929145 -7.52104187 148.43800354 C-7.52192546 138.81321292 -7.51083035 129.18849264 -7.49243164 119.5637207 C-7.47125705 108.42275467 -7.46775504 97.28189169 -7.4739936 86.14090961 C-7.47968023 75.43921762 -7.47405027 64.73756206 -7.46282005 54.03587532 C-7.45816538 49.47409456 -7.45730395 44.91233601 -7.4594059 40.35055351 C-7.46128397 34.9834112 -7.45322214 29.61637439 -7.4373455 24.24925613 C-7.43308849 22.27471541 -7.43226155 20.30016401 -7.43503571 18.32562065 C-7.43823777 15.63980958 -7.42922599 12.95431766 -7.41694641 10.26853943 C-7.42072573 9.47876707 -7.42450506 8.68899471 -7.42839891 7.87528986 C-7.37670112 1.52649364 -6.33042578 0.01518608 0 0 Z " fill="#000000" transform="translate(977.15625,278.734375)"/>
<path d="M0 0 C1.30862944 0.01369188 1.30862944 0.01369188 2.64369583 0.02766037 C3.57498936 0.02943661 4.50628288 0.03121284 5.46579742 0.03304291 C8.64646582 0.04163973 11.82687017 0.06478146 15.00746536 0.08771896 C17.31091867 0.09716296 19.61437569 0.10573154 21.91783524 0.11350632 C27.06148176 0.1328282 32.20506017 0.15860777 37.34865189 0.18891525 C45.6169573 0.23724788 53.88528878 0.26792279 62.15368128 0.29691648 C78.19911987 0.35365883 94.24437806 0.43141199 110.28964996 0.52371979 C120.02514373 0.57954672 129.76062387 0.62861309 139.49619305 0.66929948 C146.45946755 0.69895601 153.42267741 0.73611725 160.38588321 0.77894652 C164.50659874 0.8040872 168.62726805 0.82591568 172.74803925 0.83950043 C176.57527802 0.85225413 180.40234924 0.8742333 184.229496 0.90353966 C185.63160657 0.91263673 187.033744 0.91831061 188.43588257 0.9203701 C190.34170871 0.92367397 192.24749817 0.94029339 194.15324783 0.95768356 C195.75264804 0.9659797 195.75264804 0.9659797 197.38435936 0.97444344 C199.89027786 1.23615646 199.89027786 1.23615646 201.89027786 3.23615646 C202.13319778 5.46686935 202.13319778 5.46686935 202.12074661 8.20881271 C202.11881302 9.19043381 202.11687943 10.1720549 202.11488724 11.18342209 C202.10264114 12.21144943 202.09039505 13.23947678 202.07777786 14.29865646 C202.07681107 15.84649826 202.07681107 15.84649826 202.07582474 17.42560959 C202.03043783 25.09599649 202.03043783 25.09599649 200.89027786 26.23615646 C198.6794374 26.33539399 196.4653591 26.36248071 194.25229263 26.36314011 C193.54981641 26.3647001 192.8473402 26.36626009 192.12357682 26.36786735 C189.75062364 26.37188095 187.37773356 26.36868592 185.00477982 26.36555099 C183.30948728 26.36690523 181.61419503 26.36868529 179.91890335 26.37086105 C175.2910555 26.37544277 170.66322982 26.37364018 166.03538156 26.37048197 C161.17135448 26.36795024 156.30732931 26.37029928 151.44330215 26.37186813 C143.24227434 26.37369247 135.04125549 26.37128188 126.84022903 26.36652756 C117.43466911 26.36113695 108.02913104 26.36280811 98.62357169 26.36835396 C90.51274441 26.37294104 82.4019236 26.37350713 74.29109544 26.37091529 C69.4644909 26.36937608 64.63789649 26.36909143 59.81129265 26.37245178 C25.4391078 26.39282591 25.4391078 26.39282591 8.39757001 25.90880942 C6.46931127 25.85440365 4.54084421 25.80754524 2.61238194 25.76090813 C1.48138663 25.72283987 0.35039133 25.68477161 -0.81487656 25.64554977 C-1.79638089 25.61497419 -2.77788523 25.58439861 -3.78913212 25.5528965 C-6.10972214 25.23615646 -6.10972214 25.23615646 -8.10972214 23.23615646 C-8.3685112 21.11310959 -8.3685112 21.11310959 -8.37534714 18.51740646 C-8.37792526 17.58541428 -8.38050339 16.65342209 -8.38315964 15.69318771 C-8.37542526 14.7173674 -8.36769089 13.74154709 -8.35972214 12.73615646 C-8.36745651 11.76033615 -8.37519089 10.78451584 -8.38315964 9.77912521 C-8.38058151 8.84713303 -8.37800339 7.91514084 -8.37534714 6.95490646 C-8.37309128 6.09832443 -8.37083542 5.2417424 -8.3685112 4.35920334 C-7.7587602 -0.64305579 -4.18128214 0.00554066 0 0 Z " fill="#000000" transform="translate(1497.1097221374512,972.763843536377)"/>
<path d="M0 0 C2.5546875 1.9765625 2.5546875 1.9765625 4.875 4.625 C5.65617187 5.48351562 6.43734375 6.34203125 7.2421875 7.2265625 C9.3460803 10.5460378 9.69346042 12.14230538 9 16 C7.19921875 18.23828125 7.19921875 18.23828125 4.6875 20.3125 C3.30884766 21.47265625 3.30884766 21.47265625 1.90234375 22.65625 C0.94457031 23.4296875 -0.01320313 24.203125 -1 25 C-2.29744141 26.06734375 -2.29744141 26.06734375 -3.62109375 27.15625 C-5.41436007 28.62710143 -7.21277378 30.09169403 -9.015625 31.55078125 C-12.38761363 34.318107 -15.69665446 37.1514694 -19 40 C-23.98925694 44.2998985 -29.04221734 48.50485878 -34.15625 52.65625 C-37.47686486 55.39302049 -40.74046782 58.1910295 -44 61 C-48.98940767 65.29972713 -54.04221156 69.50485409 -59.15625 73.65625 C-62.47686486 76.39302049 -65.74046782 79.1910295 -69 82 C-73.12468204 85.55453161 -77.27207712 89.06792143 -81.5 92.5 C-86.90076172 96.88712902 -92.174677 101.41223412 -97.44921875 105.94921875 C-104.71031003 112.19427321 -112.00553429 118.3963115 -119.4375 124.4375 C-124.30129025 128.39508188 -129.05881231 132.46542446 -133.80834961 136.55834961 C-137.33298919 139.58945289 -140.89039882 142.56985316 -144.5 145.5 C-149.96483942 149.93816101 -155.30649447 154.51201679 -160.640625 159.10546875 C-161.19169922 159.57130371 -161.74277344 160.03713867 -162.31054688 160.51708984 C-163.4993825 161.56058516 -164.64920397 162.64938331 -165.76757812 163.76806641 C-167.45191442 165.39647386 -168.9897854 166.79577584 -171 168 C-176.18145605 167.49606787 -178.61542998 164.72721912 -181.875 160.875 C-182.65617187 159.96492187 -183.43734375 159.05484375 -184.2421875 158.1171875 C-185.11230469 157.06917969 -185.11230469 157.06917969 -186 156 C-184.74633209 151.26316827 -183.28586939 148.85087463 -179.5625 145.6875 C-178.21285156 144.52927734 -178.21285156 144.52927734 -176.8359375 143.34765625 C-173.20546092 140.34226173 -169.57229576 137.34179657 -165.91015625 134.375 C-162.78570211 131.82510991 -159.70027196 129.23376456 -156.625 126.625 C-156.08270752 126.16512695 -155.54041504 125.70525391 -154.98168945 125.23144531 C-153.32052232 123.82167288 -151.66012031 122.41100496 -150 121 C-143.89111965 115.80780978 -137.78489359 110.61876419 -131.5625 105.5625 C-126.69870975 101.60491812 -121.94118769 97.53457554 -117.19165039 93.44165039 C-112.8019965 89.66665609 -108.33885229 85.99271539 -103.84375 82.34375 C-100.52313514 79.60697951 -97.25953218 76.8089705 -94 74 C-89.87531796 70.44546839 -85.72792288 66.93207857 -81.5 63.5 C-76.09923828 59.11287098 -70.825323 54.58776588 -65.55078125 50.05078125 C-58.28968997 43.80572679 -50.99446571 37.6036885 -43.5625 31.5625 C-38.70395043 27.60918237 -33.9513591 23.54345748 -29.20703125 19.45483398 C-24.66641256 15.54992691 -20.06384683 11.73605485 -15.3984375 7.98046875 C-12.7232208 5.77145431 -10.19655826 3.43573726 -7.73046875 0.99609375 C-4.99318794 -0.57954193 -3.09481693 -0.43989222 0 0 Z " fill="#000000" transform="translate(1518,491)"/>
</svg>
